<svg width="16" height="16" viewBox="0 0 16 16" fill="none" xmlns="http://www.w3.org/2000/svg">
<path d="M6.90454 3.5685L6.20686 3.84757L6.90454 3.5685ZM7.5647 5.21892L8.26238 4.93985L7.5647 5.21892ZM7.364 6.48579L7.94126 6.96684L7.94126 6.96683L7.364 6.48579ZM7.00871 6.91214L7.58597 7.39319H7.58597L7.00871 6.91214ZM7.08525 8.59945L6.55391 9.13078L6.55391 9.13078L7.08525 8.59945ZM8.28567 9.79987L8.81701 9.26853L8.28567 9.79987ZM9.97298 9.87641L9.49193 9.29915L9.97298 9.87641ZM10.3993 9.52111L10.8804 10.0984L10.8804 10.0984L10.3993 9.52111ZM11.6662 9.32042L11.3871 10.0181L11.6662 9.32042ZM13.3166 9.98058L13.5957 9.2829V9.2829L13.3166 9.98058ZM4.01898 3.53267H5.74174V2.02983H4.01898V3.53267ZM6.20686 3.84757L6.86702 5.49799L8.26238 4.93985L7.60222 3.28943L6.20686 3.84757ZM6.78674 6.00474L6.43145 6.43109L7.58597 7.39319L7.94126 6.96684L6.78674 6.00474ZM6.55391 9.13078L7.75434 10.3312L8.81701 9.26853L7.61659 8.06811L6.55391 9.13078ZM10.454 10.4537L10.8804 10.0984L9.91828 8.94385L9.49193 9.29915L10.454 10.4537ZM11.3871 10.0181L13.0375 10.6783L13.5957 9.2829L11.9453 8.62274L11.3871 10.0181ZM13.3524 11.1434V12.8661H14.8553V11.1434H13.3524ZM12.9174 13.3012C7.76268 13.3012 3.58394 9.12244 3.58394 3.96771H2.0811C2.0811 9.95244 6.93268 14.804 12.9174 14.804V13.3012ZM13.3524 12.8661C13.3524 13.1064 13.1577 13.3012 12.9174 13.3012V14.804C13.9877 14.804 14.8553 13.9364 14.8553 12.8661H13.3524ZM13.0375 10.6783C13.2277 10.7543 13.3524 10.9385 13.3524 11.1434H14.8553C14.8553 10.324 14.3564 9.58721 13.5957 9.2829L13.0375 10.6783ZM10.8804 10.0984C11.0217 9.98058 11.2163 9.94976 11.3871 10.0181L11.9453 8.62274C11.2619 8.34939 10.4837 8.47268 9.91828 8.94386L10.8804 10.0984ZM7.75434 10.3312C8.48716 11.064 9.65787 11.1171 10.454 10.4537L9.49193 9.29915C9.29289 9.46501 9.00022 9.45174 8.81701 9.26853L7.75434 10.3312ZM6.43145 6.43109C5.76798 7.22725 5.82109 8.39796 6.55391 9.13078L7.61659 8.06811C7.43338 7.8849 7.4201 7.59223 7.58597 7.39319L6.43145 6.43109ZM6.86702 5.49799C6.93536 5.66883 6.90454 5.86338 6.78674 6.00474L7.94126 6.96683C8.41244 6.40142 8.53573 5.62321 8.26238 4.93985L6.86702 5.49799ZM5.74174 3.53267C5.94658 3.53267 6.13078 3.65738 6.20686 3.84757L7.60222 3.28943C7.29791 2.52867 6.5611 2.02983 5.74174 2.02983V3.53267ZM4.01898 2.02983C2.94872 2.02983 2.0811 2.89745 2.0811 3.96771H3.58394C3.58394 3.72744 3.77871 3.53267 4.01898 3.53267V2.02983Z" fill="#E10A0A"/>
</svg>
