<?xml version="1.0" encoding="UTF-8"?>
<svg xmlns="http://www.w3.org/2000/svg" width="24" height="24" viewBox="0 0 24 24" fill="none">
  <path d="M17 20C17 19.4477 17.4477 19 18 19C18.5523 19 19 19.4477 19 20C19 20.5523 18.5523 21 18 21C17.4477 21 17 20.5523 17 20Z" stroke="#E10A0A" stroke-width="2" stroke-linecap="round" stroke-linejoin="round"></path>
  <path d="M8 20C8 19.4477 8.44772 19 9 19C9.55228 19 10 19.4477 10 20C10 20.5523 9.55228 21 9 21C8.44772 21 8 20.5523 8 20Z" stroke="#E10A0A" stroke-width="2" stroke-linecap="round" stroke-linejoin="round"></path>
  <path d="M2.99976 3H4.76747C5.24974 3 5.6633 3.3442 5.75085 3.81845L7.99976 16" stroke="#E10A0A" stroke-width="2" stroke-linecap="round" stroke-linejoin="round"></path>
  <path d="M10 6H19.7429C20.386 6 20.8619 6.59824 20.7173 7.22486L18.8712 15.2249C18.7665 15.6786 18.3625 16 17.8968 16H8" stroke="#E10A0A" stroke-width="2" stroke-linecap="round" stroke-linejoin="round"></path>
</svg>
