<svg width="41" height="62" viewBox="0 0 41 62" fill="none" xmlns="http://www.w3.org/2000/svg">
<g id="Vector">
<path fill-rule="evenodd" clip-rule="evenodd" d="M16.7768 4.3237L23.9188 30.511L36.6045 32.6253L36.1394 35.4159L23.1905 33.2577L0.809942 51.4937L2.52049 24.125L5.34402 24.3015L4.03692 45.2151L20.5121 31.7909L1.69314 17.3558L16.7768 4.3237ZM20.3237 28.0809L6.17137 17.2254L15.2289 9.39983L20.3237 28.0809Z" fill="#B00000"/>
<path d="M28.1865 0.826105C28.1186 0.82359 12.9399 0.82359 12.872 0.826105C5.99175 0.886458 0.411621 6.50431 0.411621 13.3971V48.603C0.411621 55.536 6.05211 61.1765 12.9851 61.1765H28.0734C35.0064 61.1765 40.6469 55.536 40.6469 48.603V13.3996C40.6469 6.50431 35.0668 0.888972 28.1865 0.826105ZM35.6175 48.603C35.6175 52.7623 32.2327 56.1471 28.0734 56.1471H12.9851C8.82583 56.1471 5.44103 52.7623 5.44103 48.603V13.3996C5.44103 9.74577 8.0513 6.69291 11.504 6.00137L13.2492 9.4943C13.6742 10.3468 14.5468 10.8849 15.4999 10.8849H25.5587C26.5118 10.8849 27.3818 10.3468 27.8093 9.4943L29.5545 6.00137C33.0072 6.6904 35.6175 9.74577 35.6175 13.3996V48.603ZM23.044 51.1177H18.0146C16.6264 51.1177 15.4999 49.9911 15.4999 48.603C15.4999 47.2149 16.6264 46.0883 18.0146 46.0883H23.044C24.4321 46.0883 25.5587 47.2149 25.5587 48.603C25.5587 49.9911 24.4321 51.1177 23.044 51.1177Z" fill="#B00000"/>
</g>
</svg>
