<svg width="62" height="62" viewBox="0 0 62 62" fill="none" xmlns="http://www.w3.org/2000/svg">
<g clip-path="url(#clip0_27837_9732)">
<path d="M38.6575 0.824152C38.5896 0.821637 23.4108 0.821637 23.3429 0.824152C16.4627 0.884505 10.8826 6.50236 10.8826 13.3952V48.601C10.8826 55.5341 16.5231 61.1746 23.4561 61.1746H38.5443C45.4774 61.1746 51.1179 55.5341 51.1179 48.601V13.3977C51.1179 6.50236 45.5377 0.887019 38.6575 0.824152ZM46.0884 48.601C46.0884 52.7604 42.7037 56.1452 38.5443 56.1452H23.4561C19.2968 56.1452 15.912 52.7604 15.912 48.601V13.3977C15.912 9.74381 18.5222 6.69096 21.9749 5.99942L23.7201 9.49234C24.1451 10.3448 25.0177 10.883 25.9708 10.883H36.0296C36.9827 10.883 37.8528 10.3448 38.2803 9.49234L40.0255 5.99942C43.4782 6.68845 46.0884 9.74381 46.0884 13.3977V48.601Z" fill="#B00000"/>
<path d="M34.3172 23.5883C34.3201 23.7673 34.377 23.9415 34.4809 24.0896C34.5848 24.2377 34.7311 24.3531 34.9019 24.4217C36.4286 25.0721 37.7196 26.1494 38.6093 27.5153C39.499 28.8812 39.9467 30.4733 39.895 32.0874C39.859 34.2357 38.943 36.2822 37.3485 37.7767C35.7539 39.2712 33.6115 40.0912 31.3925 40.0563C29.1735 40.0215 27.0597 39.1346 25.5161 37.5908C23.9725 36.0471 23.1255 33.9729 23.1615 31.8246C23.1636 30.2551 23.6367 28.72 24.5231 27.406C25.4095 26.0919 26.6711 25.0555 28.1546 24.4226C28.3254 24.3536 28.4718 24.2378 28.5757 24.0895C28.6795 23.9411 28.7364 23.7666 28.7393 23.5874C28.7396 23.44 28.7024 23.2948 28.6311 23.1645C28.5598 23.0343 28.4565 22.923 28.3304 22.8404C28.2043 22.7578 28.0591 22.7065 27.9077 22.691C27.7563 22.6754 27.6032 22.6961 27.462 22.7513C25.3046 23.6568 23.5354 25.2546 22.4525 27.2754C21.3696 29.2962 21.0391 31.6166 21.5168 33.8457C21.9944 36.0749 23.2509 38.0765 25.0748 39.5135C26.8986 40.9506 29.1782 41.7352 31.5296 41.7352C33.8811 41.7352 36.1607 40.9506 37.9845 39.5135C39.8083 38.0765 41.0649 36.0749 41.5425 33.8457C42.0201 31.6166 41.6897 29.2962 40.6068 27.2754C39.5239 25.2546 37.7547 23.6568 35.5973 22.7513C35.4559 22.6955 35.3024 22.6744 35.1505 22.6897C34.9987 22.705 34.853 22.7563 34.7265 22.839C34.5999 22.9218 34.4964 23.0334 34.425 23.1641C34.3536 23.2948 34.3166 23.4405 34.3172 23.5883Z" fill="#B00000"/>
<path fill-rule="evenodd" clip-rule="evenodd" d="M33.955 23.5899C33.9541 23.3729 34.0086 23.1608 34.1114 22.9728C34.2139 22.785 34.3607 22.6281 34.5359 22.5136C34.711 22.3991 34.9103 22.3295 35.1162 22.3087C35.322 22.288 35.5305 22.3165 35.7238 22.3927L35.731 22.3955C37.9605 23.3313 39.7959 24.9856 40.9219 27.0868C42.0484 29.189 42.3936 31.6066 41.8957 33.9302C41.398 36.2532 40.0901 38.3319 38.201 39.8203C36.3125 41.3084 33.9563 42.1179 31.5296 42.1179C29.103 42.1179 26.7468 41.3084 24.8583 39.8203C22.9692 38.3319 21.6613 36.2532 21.1635 33.9302C20.6657 31.6066 21.0108 29.189 22.1374 27.0868C23.2633 24.9856 25.0988 23.3314 27.3283 22.3956L27.3364 22.3922C27.5295 22.3168 27.7375 22.289 27.9427 22.31C28.1479 22.3311 28.3466 22.4008 28.5211 22.515C28.6958 22.6294 28.8421 22.7857 28.9446 22.9729C29.0472 23.1603 29.1018 23.3717 29.1015 23.5881L29.1015 23.594C29.0972 23.8554 29.0141 24.1067 28.8668 24.3171C28.7206 24.526 28.5181 24.6848 28.2873 24.7787C26.8659 25.3857 25.6618 26.3772 24.818 27.6281C23.9739 28.8794 23.5257 30.3374 23.5237 31.8251L23.5236 31.8313C23.4895 33.8668 24.2915 35.8393 25.765 37.3129C27.2396 38.7876 29.2652 39.6401 31.3979 39.6736C33.5306 39.7071 35.5843 38.9186 37.1081 37.4904C38.631 36.0631 39.4988 34.1162 39.5329 32.0806L39.533 32.0744C39.582 30.5446 39.158 29.0326 38.311 27.7322C37.4642 26.4323 36.2323 25.4018 34.7695 24.778C34.5388 24.6845 34.3363 24.5261 34.19 24.3175C34.0425 24.1074 33.9593 23.8562 33.955 23.5949L33.955 23.5899ZM34.9019 24.4217C36.4286 25.0721 37.7196 26.1494 38.6093 27.5153C39.499 28.8812 39.9467 30.4733 39.895 32.0874C39.859 34.2357 38.943 36.2822 37.3485 37.7767C35.7539 39.2712 33.6115 40.0912 31.3925 40.0563C29.1735 40.0215 27.0597 39.1346 25.5161 37.5908C23.9725 36.0471 23.1255 33.9729 23.1615 31.8246C23.1636 30.2551 23.6367 28.72 24.5231 27.406C25.4095 26.0919 26.6711 25.0555 28.1546 24.4226C28.3254 24.3536 28.4718 24.2378 28.5757 24.0895C28.6795 23.9411 28.7364 23.7666 28.7393 23.5874C28.7396 23.44 28.7024 23.2948 28.6311 23.1645C28.5598 23.0343 28.4565 22.923 28.3304 22.8404C28.2043 22.7578 28.0591 22.7065 27.9077 22.691C27.7563 22.6754 27.6032 22.6961 27.462 22.7513C25.3046 23.6568 23.5354 25.2546 22.4525 27.2754C21.3696 29.2962 21.0391 31.6166 21.5168 33.8457C21.9944 36.0749 23.2509 38.0765 25.0748 39.5135C26.8986 40.9506 29.1782 41.7352 31.5296 41.7352C33.8811 41.7352 36.1607 40.9506 37.9845 39.5135C39.8083 38.0765 41.0649 36.0749 41.5425 33.8457C42.0201 31.6166 41.6897 29.2962 40.6068 27.2754C39.5239 25.2546 37.7547 23.6568 35.5973 22.7513C35.4559 22.6955 35.3024 22.6744 35.1505 22.6897C34.9987 22.705 34.853 22.7563 34.7265 22.839C34.5999 22.9218 34.4964 23.0334 34.425 23.1641C34.3536 23.2948 34.3166 23.4405 34.3172 23.5883C34.3201 23.7673 34.377 23.9415 34.4809 24.0896C34.5848 24.2377 34.7311 24.3531 34.9019 24.4217Z" fill="#B00000"/>
<path d="M32.2114 22.0045C32.2114 21.6287 31.9062 21.3241 31.5296 21.3241C31.1531 21.3241 30.8479 21.6287 30.8479 22.0045L30.8479 28.1512C30.8479 28.5269 31.1531 28.8316 31.5296 28.8316C31.9062 28.8316 32.2114 28.5269 32.2114 28.1512L32.2114 22.0045Z" fill="#B00000"/>
<path fill-rule="evenodd" clip-rule="evenodd" d="M31.5296 20.9414C32.0864 20.9414 32.5736 21.397 32.5736 22.0045L32.5736 28.1512C32.5736 28.7586 32.0864 29.2143 31.5296 29.2143C30.9729 29.2143 30.4857 28.7586 30.4857 28.1512L30.4857 22.0045C30.4857 21.397 30.9729 20.9414 31.5296 20.9414ZM31.5296 21.3241C31.9062 21.3241 32.2114 21.6287 32.2114 22.0045L32.2114 28.1512C32.2114 28.5269 31.9062 28.8316 31.5296 28.8316C31.1531 28.8316 30.8479 28.5269 30.8479 28.1512L30.8479 22.0045C30.8479 21.6287 31.1531 21.3241 31.5296 21.3241Z" fill="#B00000"/>
</g>
<defs>
<clipPath id="clip0_27837_9732">
<rect width="60.3529" height="60.3529" fill="white" transform="translate(0.82373 0.824219)"/>
</clipPath>
</defs>
</svg>
