<svg width="42" height="62" viewBox="0 0 42 62" fill="none" xmlns="http://www.w3.org/2000/svg">
<g id="Vector">
<path d="M28.6575 0.824152C28.5896 0.821637 13.4108 0.821637 13.3429 0.824152C6.4627 0.884505 0.882568 6.50236 0.882568 13.3952V48.6011C0.882568 55.5341 6.52305 61.1746 13.4561 61.1746H28.5443C35.4774 61.1746 41.1179 55.5341 41.1179 48.6011V13.3977C41.1179 6.50236 35.5377 0.887019 28.6575 0.824152ZM36.0884 48.6011C36.0884 52.7604 32.7037 56.1452 28.5443 56.1452H13.4561C9.29677 56.1452 5.91198 52.7604 5.91198 48.6011V13.3977C5.91198 10.2783 7.79433 8.22375 10.4934 7.25912C11.4383 6.92143 12.4527 6.8594 13.4562 6.8594C14.965 6.8594 14.7663 6.8594 15.7194 6.8594C15.7194 6.8594 25.0766 6.8594 26.0296 6.8594C26.9827 6.8594 27.0356 6.8594 28.5444 6.8594C29.5478 6.8594 30.5624 6.92098 31.5074 7.25839C34.2063 8.22202 36.0884 10.2784 36.0884 13.3977V48.6011Z" fill="#B00000"/>
<path d="M15.2251 45.0271V51.6771C15.2251 52.7567 14.1553 53.633 12.8318 53.633C11.5083 53.633 10.4385 52.7567 10.4385 51.6771V45.0271C10.4385 43.9474 11.5083 43.0712 12.8318 43.0712C14.1553 43.0712 15.2251 43.9474 15.2251 45.0271Z" fill="#B00000"/>
<path d="M23.3935 45.0271V51.6771C23.3935 52.7567 22.3237 53.633 21.0002 53.633C19.6767 53.633 18.6069 52.7567 18.6069 51.6771V45.0271C18.6069 43.9474 19.6767 43.0712 21.0002 43.0712C22.3237 43.0712 23.3935 43.9474 23.3935 45.0271Z" fill="#B00000"/>
<path d="M31.562 45.0271V51.6771C31.562 52.7567 30.4922 53.633 29.1687 53.633C27.8452 53.633 26.7754 52.7567 26.7754 51.6771V45.0271C26.7754 43.9474 27.8452 43.0712 29.1687 43.0712C30.4922 43.0712 31.562 43.9474 31.562 45.0271Z" fill="#B00000"/>
</g>
</svg>
