<svg width="62" height="62" viewBox="0 0 62 62" fill="none" xmlns="http://www.w3.org/2000/svg">
<g clip-path="url(#clip0_27837_9725)">
<path opacity="0.803922" d="M21.9827 2.71094L22.2774 2.76988L21.9827 2.82881V2.71094Z" fill="#B00000" stroke="#B00000"/>
<path opacity="0.803922" d="M39.782 2.71094L40.0767 2.76988L39.782 2.82881V2.71094Z" fill="#B00000" stroke="#B00000"/>
<path opacity="0.803922" d="M21.0395 3.06445L20.9216 3.30021" stroke="#B00000"/>
<path opacity="0.803922" d="M40.9607 3.06445L41.0786 3.30021" stroke="#B00000"/>
<path opacity="0.803922" d="M20.2146 3.88867L20.0967 4.12443" stroke="#B00000"/>
<path opacity="0.803922" d="M41.7859 3.88867L41.9038 4.12443" stroke="#B00000"/>
<path opacity="0.803922" d="M19.743 4.94922L19.802 5.24391H19.6841L19.743 4.94922Z" fill="#B00000" stroke="#B00000"/>
<path opacity="0.803922" d="M42.2574 4.94922L42.3164 5.24391H42.1985L42.2574 4.94922Z" fill="#B00000" stroke="#B00000"/>
<path opacity="0.803922" d="M14.4385 10.2539L14.9689 10.3128L14.4385 10.3718V10.2539Z" fill="#B00000" stroke="#B00000"/>
<path opacity="0.803922" d="M47.0903 10.2539L47.6208 10.3128L47.0903 10.3718V10.2539Z" fill="#B00000" stroke="#B00000"/>
<path opacity="0.803922" d="M12.1989 11.0801L12.0811 11.3158" stroke="#B00000"/>
<path opacity="0.803922" d="M49.8015 11.0801L49.9194 11.3158" stroke="#B00000"/>
<path opacity="0.803922" d="M11.8451 11.3145L11.6094 11.6681" stroke="#B00000"/>
<path opacity="0.803922" d="M50.1553 11.3145L50.391 11.6681" stroke="#B00000"/>
<path opacity="0.803922" d="M10.9023 12.2578L10.6665 12.6114" stroke="#B00000"/>
<path opacity="0.803922" d="M51.0981 12.2578L51.3339 12.6114" stroke="#B00000"/>
<path opacity="0.803922" d="M10.5485 12.7305L10.4307 12.9662" stroke="#B00000"/>
<path opacity="0.803922" d="M51.4519 12.7305L51.5698 12.9662" stroke="#B00000"/>
<path opacity="0.803922" d="M47.562 14.1445L47.8567 14.3213L47.6799 14.2624L47.562 14.1445Z" fill="#B00000" stroke="#B00000"/>
<path opacity="0.803922" d="M13.967 14.3809L13.7312 14.7345" stroke="#B00000"/>
<path opacity="0.803922" d="M48.0334 14.3809L48.2692 14.7345" stroke="#B00000"/>
<path opacity="0.803922" d="M9.60557 14.9688L9.66451 15.2634H9.54663L9.60557 14.9688Z" fill="#B00000" stroke="#B00000"/>
<path opacity="0.803922" d="M52.3949 14.9688L52.4538 15.2634H52.3359L52.3949 14.9688Z" fill="#B00000" stroke="#B00000"/>
<path opacity="0.803922" d="M13.024 16.8555L13.083 17.1502H12.9651L13.024 16.8555Z" fill="#B00000" stroke="#B00000"/>
<path opacity="0.803922" d="M48.9764 16.8555L49.0354 17.1502H48.9175L48.9764 16.8555Z" fill="#B00000" stroke="#B00000"/>
<path opacity="0.803922" d="M9.13413 17.209L9.19307 17.5037H9.0752L9.13413 17.209Z" fill="#B00000" stroke="#B00000"/>
<path opacity="0.803922" d="M52.8663 17.209L52.9253 17.5037H52.8074L52.8663 17.209Z" fill="#B00000" stroke="#B00000"/>
<path opacity="0.803922" d="M12.9061 17.4453L12.965 17.74H12.8472L12.9061 17.4453Z" fill="#B00000" stroke="#B00000"/>
<path opacity="0.803922" d="M49.0943 17.4453L49.1533 17.74H49.0354L49.0943 17.4453Z" fill="#B00000" stroke="#B00000"/>
<path opacity="0.803922" d="M9.01621 17.7988L9.07515 18.0935H8.95728L9.01621 17.7988Z" fill="#B00000" stroke="#B00000"/>
<path opacity="0.803922" d="M52.9842 17.7988L53.0432 18.0935H52.9253L52.9842 17.7988Z" fill="#B00000" stroke="#B00000"/>
<path opacity="0.803922" d="M12.4347 19.6836L12.4936 19.9783H12.3757L12.4347 19.6836Z" fill="#B00000" stroke="#B00000"/>
<path opacity="0.803922" d="M49.5658 19.6836L49.6247 19.9783H49.5068L49.5658 19.6836Z" fill="#B00000" stroke="#B00000"/>
<path opacity="0.803922" d="M8.54478 20.0391L8.60372 20.3338H8.48584L8.54478 20.0391Z" fill="#B00000" stroke="#B00000"/>
<path opacity="0.803922" d="M53.4557 20.0391L53.5146 20.3338H53.3967L53.4557 20.0391Z" fill="#B00000" stroke="#B00000"/>
<path opacity="0.803922" d="M12.3168 20.2734L12.3757 20.5681H12.2578L12.3168 20.2734Z" fill="#B00000" stroke="#B00000"/>
<path opacity="0.803922" d="M49.6837 20.2734L49.7426 20.5681H49.6248L49.6837 20.2734Z" fill="#B00000" stroke="#B00000"/>
<path opacity="0.803922" d="M8.42686 20.627L8.4858 20.9216H8.36792L8.42686 20.627Z" fill="#B00000" stroke="#B00000"/>
<path opacity="0.803922" d="M53.5736 20.627L53.6325 20.9216H53.5146L53.5736 20.627Z" fill="#B00000" stroke="#B00000"/>
<path opacity="0.803922" d="M11.8453 22.5137L11.9043 22.8084H11.7864L11.8453 22.5137Z" fill="#B00000" stroke="#B00000"/>
<path opacity="0.803922" d="M50.1551 22.5137L50.2141 22.8084H50.0962L50.1551 22.5137Z" fill="#B00000" stroke="#B00000"/>
<path opacity="0.803922" d="M7.95518 22.8672L8.01412 23.1619H7.89624L7.95518 22.8672Z" fill="#B00000" stroke="#B00000"/>
<path opacity="0.803922" d="M54.045 22.8672L54.104 23.1619H53.9861L54.045 22.8672Z" fill="#B00000" stroke="#B00000"/>
<path opacity="0.803922" d="M11.7274 23.1035L11.7863 23.3982H11.6685L11.7274 23.1035Z" fill="#B00000" stroke="#B00000"/>
<path opacity="0.803922" d="M50.2731 23.1035L50.332 23.3982H50.2141L50.2731 23.1035Z" fill="#B00000" stroke="#B00000"/>
<path opacity="0.803922" d="M7.8375 23.457L7.89644 23.7517H7.77856L7.8375 23.457Z" fill="#B00000" stroke="#B00000"/>
<path opacity="0.803922" d="M54.1629 23.457L54.2219 23.7517H54.104L54.1629 23.457Z" fill="#B00000" stroke="#B00000"/>
<path opacity="0.803922" d="M11.2557 25.3418L11.3147 25.6365H11.1968L11.2557 25.3418Z" fill="#B00000" stroke="#B00000"/>
<path opacity="0.803922" d="M50.7445 25.3418L50.8034 25.6365H50.6855L50.7445 25.3418Z" fill="#B00000" stroke="#B00000"/>
<path opacity="0.803922" d="M7.36582 25.6953L7.42476 25.99H7.30688L7.36582 25.6953Z" fill="#B00000" stroke="#B00000"/>
<path opacity="0.803922" d="M54.6346 25.6953L54.6936 25.99H54.5757L54.6346 25.6953Z" fill="#B00000" stroke="#B00000"/>
<path opacity="0.803922" d="M11.138 25.9316L11.197 26.2263H11.0791L11.138 25.9316Z" fill="#B00000" stroke="#B00000"/>
<path opacity="0.803922" d="M50.8624 25.9316L50.9213 26.2263H50.8035L50.8624 25.9316Z" fill="#B00000" stroke="#B00000"/>
<path opacity="0.803922" d="M7.2479 26.2852L7.30684 26.5798H7.18896L7.2479 26.2852Z" fill="#B00000" stroke="#B00000"/>
<path opacity="0.803922" d="M54.7523 26.2852L54.8112 26.5798H54.6934L54.7523 26.2852Z" fill="#B00000" stroke="#B00000"/>
<path opacity="0.803922" d="M10.6664 28.1719L10.7253 28.4666H10.6074L10.6664 28.1719Z" fill="#B00000" stroke="#B00000"/>
<path opacity="0.803922" d="M51.3338 28.1719L51.3928 28.4666H51.2749L51.3338 28.1719Z" fill="#B00000" stroke="#B00000"/>
<path opacity="0.803922" d="M6.77647 28.5254L6.83541 28.8201H6.71753L6.77647 28.5254Z" fill="#B00000" stroke="#B00000"/>
<path opacity="0.803922" d="M55.224 28.5254L55.2829 28.8201H55.165L55.224 28.5254Z" fill="#B00000" stroke="#B00000"/>
<path opacity="0.803922" d="M10.5487 28.7617L10.6076 29.0564H10.4897L10.5487 28.7617Z" fill="#B00000" stroke="#B00000"/>
<path opacity="0.803922" d="M51.4518 28.7617L51.5107 29.0564H51.3928L51.4518 28.7617Z" fill="#B00000" stroke="#B00000"/>
<path opacity="0.803922" d="M6.65855 29.1152L6.71749 29.4099H6.59961L6.65855 29.1152Z" fill="#B00000" stroke="#B00000"/>
<path opacity="0.803922" d="M55.3417 29.1152L55.4006 29.4099H55.2827L55.3417 29.1152Z" fill="#B00000" stroke="#B00000"/>
<path opacity="0.803922" d="M10.077 31L10.1359 31.2947H10.0181L10.077 31Z" fill="#B00000" stroke="#B00000"/>
<path opacity="0.803922" d="M51.9234 31L51.9824 31.2947H51.8645L51.9234 31Z" fill="#B00000" stroke="#B00000"/>
<path opacity="0.803922" d="M6.18711 31.3535L6.24605 31.6482H6.12817L6.18711 31.3535Z" fill="#B00000" stroke="#B00000"/>
<path opacity="0.803922" d="M55.8133 31.3535L55.8723 31.6482H55.7544L55.8133 31.3535Z" fill="#B00000" stroke="#B00000"/>
<path opacity="0.803922" d="M9.95908 31.5898L10.018 31.8845H9.90015L9.95908 31.5898Z" fill="#B00000" stroke="#B00000"/>
<path opacity="0.803922" d="M52.0411 31.5898L52.1001 31.8845H51.9822L52.0411 31.5898Z" fill="#B00000" stroke="#B00000"/>
<path opacity="0.803922" d="M6.06919 31.9434L6.12813 32.2381H6.01025L6.06919 31.9434Z" fill="#B00000" stroke="#B00000"/>
<path opacity="0.803922" d="M55.9313 31.9434L55.9902 32.2381H55.8723L55.9313 31.9434Z" fill="#B00000" stroke="#B00000"/>
<path opacity="0.803922" d="M4.4189 33.4766L4.30103 33.7123" stroke="#B00000"/>
<path opacity="0.803922" d="M4.06526 33.7109L3.59375 34.3003" stroke="#B00000"/>
<path opacity="0.803922" d="M57.9351 33.7109L58.4066 34.3003" stroke="#B00000"/>
<path opacity="0.803922" d="M3.24019 34.7734L3.12231 35.0092" stroke="#B00000"/>
<path opacity="0.803922" d="M58.7603 34.7734L58.8781 35.0092" stroke="#B00000"/>
<path opacity="0.803922" d="M2.76866 35.9512L2.82759 36.3637H2.70972L2.76866 35.9512Z" fill="#B00000" stroke="#B00000"/>
<path opacity="0.803922" d="M59.2318 35.9512L59.2907 36.3637H59.1729L59.2318 35.9512Z" fill="#B00000" stroke="#B00000"/>
<path opacity="0.803922" d="M10.1949 40.666L9.66446 41.3143L9.48765 41.7269L9.42871 41.5501L10.1949 40.666Z" fill="#B00000" stroke="#B00000"/>
<path opacity="0.803922" d="M12.1987 40.666L12.3166 40.9018" stroke="#B00000"/>
<path opacity="0.803922" d="M16.7961 40.666L16.6782 40.9018" stroke="#B00000"/>
<path opacity="0.803922" d="M22.572 40.666L23.1614 41.3733" stroke="#B00000"/>
<path opacity="0.803922" d="M39.4284 40.666L39.3105 40.9018" stroke="#B00000"/>
<path opacity="0.803922" d="M45.2043 40.666L45.7937 41.3733" stroke="#B00000"/>
<path opacity="0.803922" d="M49.8016 40.666L49.2712 41.3143L49.0943 41.7269L49.0354 41.5501L49.8016 40.666Z" fill="#B00000" stroke="#B00000"/>
<path opacity="0.803922" d="M51.8054 40.666L51.9233 40.9018" stroke="#B00000"/>
<path opacity="0.803922" d="M12.6704 41.1387L12.7883 41.3744" stroke="#B00000"/>
<path opacity="0.803922" d="M16.3244 41.1387L16.2065 41.3744" stroke="#B00000"/>
<path opacity="0.803922" d="M38.957 41.1387L38.8391 41.3744" stroke="#B00000"/>
<path opacity="0.803922" d="M52.2769 41.1387L52.3947 41.3744" stroke="#B00000"/>
<path opacity="0.803922" d="M9.36973 41.8457L9.42867 42.7298H9.31079L9.36973 41.8457Z" fill="#B00000" stroke="#B00000"/>
<path opacity="0.803922" d="M48.9764 41.8457L49.0354 42.7298H48.9175L48.9764 41.8457Z" fill="#B00000" stroke="#B00000"/>
<path opacity="0.803922" d="M9.60547 43.2598L10.1949 43.967" stroke="#B00000"/>
<path opacity="0.803922" d="M12.7883 43.2598L12.6704 43.4955" stroke="#B00000"/>
<path opacity="0.803922" d="M16.2065 43.2598L16.7959 43.967" stroke="#B00000"/>
<path opacity="0.803922" d="M23.1614 43.2598L22.572 43.967" stroke="#B00000"/>
<path opacity="0.803922" d="M38.8391 43.2598L39.4285 43.967" stroke="#B00000"/>
<path opacity="0.803922" d="M45.7937 43.2598L45.2043 43.967" stroke="#B00000"/>
<path opacity="0.803922" d="M49.2122 43.2598L49.8015 43.967" stroke="#B00000"/>
<path opacity="0.803922" d="M52.3947 43.2598L52.2769 43.4955" stroke="#B00000"/>
<path opacity="0.803922" d="M12.3166 43.7305L12.1987 43.9662" stroke="#B00000"/>
<path opacity="0.803922" d="M51.9233 43.7305L51.8054 43.9662" stroke="#B00000"/>
<path opacity="0.803922" d="M2.76866 46.3242L2.82759 46.8547H2.70972L2.76866 46.3242Z" fill="#B00000" stroke="#B00000"/>
<path opacity="0.803922" d="M59.2318 46.3242L59.2907 46.8547H59.1729L59.2318 46.3242Z" fill="#B00000" stroke="#B00000"/>
<path opacity="0.803922" d="M6.65869 46.9141L6.77657 47.1498" stroke="#B00000"/>
<path opacity="0.803922" d="M55.3418 46.9141L55.2239 47.1498" stroke="#B00000"/>
<path opacity="0.803922" d="M7.36597 47.6211L7.48384 47.8568" stroke="#B00000"/>
<path opacity="0.803922" d="M54.6345 47.6211L54.5166 47.8568" stroke="#B00000"/>
<path opacity="0.803922" d="M3.82959 49.3887L3.94747 49.6244" stroke="#B00000"/>
<path opacity="0.803922" d="M58.1708 49.3887L57.9351 49.7423" stroke="#B00000"/>
<path opacity="0.803922" d="M4.77271 50.332L5.00846 50.6857" stroke="#B00000"/>
<path opacity="0.803922" d="M57.1098 50.4512L56.9919 50.6869" stroke="#B00000"/>
<path opacity="0.803922" d="M7.60156 51.6289L8.13201 51.6878L7.60156 51.7468V51.6289Z" fill="#B00000" stroke="#B00000"/>
<path opacity="0.803922" d="M53.9272 51.6289L54.4577 51.6878L53.9272 51.7468V51.6289Z" fill="#B00000" stroke="#B00000"/>
<path opacity="0.803922" d="M8.42686 54.8125L8.4858 55.3429H8.36792L8.42686 54.8125Z" fill="#B00000" stroke="#B00000"/>
<path opacity="0.803922" d="M12.1988 54.8125L12.3756 55.1072L12.1399 54.9893L12.1988 54.8125Z" fill="#B00000" stroke="#B00000"/>
<path opacity="0.803922" d="M21.511 54.8125L21.57 54.9893L21.3342 55.1072L21.511 54.8125Z" fill="#B00000" stroke="#B00000"/>
<path opacity="0.803922" d="M25.2831 54.8125L25.342 55.3429H25.2241L25.2831 54.8125Z" fill="#B00000" stroke="#B00000"/>
<path opacity="0.803922" d="M36.7171 54.8125L36.7761 55.3429H36.6582L36.7171 54.8125Z" fill="#B00000" stroke="#B00000"/>
<path opacity="0.803922" d="M40.4894 54.8125L40.6662 55.1072L40.4304 54.9893L40.4894 54.8125Z" fill="#B00000" stroke="#B00000"/>
<path opacity="0.803922" d="M49.8016 54.8125L49.8605 54.9893L49.6248 55.1072L49.8016 54.8125Z" fill="#B00000" stroke="#B00000"/>
<path opacity="0.803922" d="M53.5736 54.8125L53.6325 55.3429H53.5146L53.5736 54.8125Z" fill="#B00000" stroke="#B00000"/>
<path opacity="0.803922" d="M12.5525 55.2832L12.8472 55.46L12.6704 55.519L12.5525 55.2832Z" fill="#B00000" stroke="#B00000"/>
<path opacity="0.803922" d="M21.1575 55.2832L21.0396 55.519L20.8628 55.46L21.1575 55.2832Z" fill="#B00000" stroke="#B00000"/>
<path opacity="0.803922" d="M40.843 55.2832L41.1377 55.46L40.9609 55.519L40.843 55.2832Z" fill="#B00000" stroke="#B00000"/>
<path opacity="0.803922" d="M49.448 55.2832L49.3301 55.519L49.1533 55.46L49.448 55.2832Z" fill="#B00000" stroke="#B00000"/>
<path opacity="0.803922" d="M8.89829 56.5801L9.07511 56.8748L8.83936 56.7569L8.89829 56.5801Z" fill="#B00000" stroke="#B00000"/>
<path opacity="0.803922" d="M24.8116 56.5801L24.8705 56.7569L24.6348 56.8748L24.8116 56.5801Z" fill="#B00000" stroke="#B00000"/>
<path opacity="0.803922" d="M37.1888 56.5801L37.3656 56.8748L37.1299 56.7569L37.1888 56.5801Z" fill="#B00000" stroke="#B00000"/>
<path opacity="0.803922" d="M53.1021 56.5801L53.161 56.7569L52.9253 56.8748L53.1021 56.5801Z" fill="#B00000" stroke="#B00000"/>
<path opacity="0.803922" d="M9.36987 57.4043L10.195 58.3473" stroke="#B00000"/>
<path opacity="0.803922" d="M24.3403 57.4043L23.5151 58.3473" stroke="#B00000"/>
<path opacity="0.803922" d="M37.6602 57.4043L38.4853 58.3473" stroke="#B00000"/>
<path opacity="0.803922" d="M52.6306 57.4043L51.8054 58.3473" stroke="#B00000"/>
<path opacity="0.803922" d="M10.7844 58.584L11.0791 58.7608L10.9023 58.8197L10.7844 58.584Z" fill="#B00000" stroke="#B00000"/>
<path opacity="0.803922" d="M22.9256 58.584L22.8077 58.8197L22.6309 58.7608L22.9256 58.584Z" fill="#B00000" stroke="#B00000"/>
<path opacity="0.803922" d="M39.0747 58.584L39.3694 58.7608L39.1926 58.8197L39.0747 58.584Z" fill="#B00000" stroke="#B00000"/>
<path opacity="0.803922" d="M51.2161 58.584L51.0982 58.8197L50.9214 58.7608L51.2161 58.584Z" fill="#B00000" stroke="#B00000"/>
<path opacity="0.803922" d="M12.3167 59.1738L12.8471 59.2328L12.3167 59.2917V59.1738Z" fill="#B00000" stroke="#B00000"/>
<path opacity="0.803922" d="M20.9216 59.1738L21.4521 59.2328L20.9216 59.2917V59.1738Z" fill="#B00000" stroke="#B00000"/>
<path opacity="0.803922" d="M40.6072 59.1738L41.1376 59.2328L40.6072 59.2917V59.1738Z" fill="#B00000" stroke="#B00000"/>
<path opacity="0.803922" d="M49.2122 59.1738L49.7426 59.2328L49.2122 59.2917V59.1738Z" fill="#B00000" stroke="#B00000"/>
<path d="M22.3362 2.71094H39.6641L40.8429 3.06457L41.727 3.83077L42.0806 4.42015L42.3163 5.36317V10.2551H46.9725C47.1139 10.4751 47.4283 10.5144 47.9155 10.3729C49.2357 10.7108 50.277 11.3199 51.0392 12.2C51.6443 12.8916 52.0765 13.756 52.3359 14.7933L55.2828 29.41L55.5185 29.9994L55.8722 32.2391L56.1079 33.0053C57.216 33.1782 58.0411 33.6693 58.5833 34.4787L58.937 35.0681L59.2906 36.4827V46.2664L58.937 48.0346C58.5598 49.0326 57.99 49.8381 57.2278 50.4511L55.5775 51.3941L53.6325 51.7477V54.7536L53.3968 56.0502C53.0274 57.0954 52.4184 57.9009 51.5697 58.4667L50.3909 59.0561L49.0943 59.2918H41.1965L39.8999 59.0561L38.7211 58.4667L37.4834 57.229L36.7761 55.5787C36.894 55.1465 36.8547 54.8714 36.6582 54.7536V51.7477H25.401L25.3421 51.8066V54.7536L25.1063 56.0502L24.5169 57.229L23.2792 58.4667L22.1005 59.0561L20.8038 59.2918H12.9061L11.6094 59.0561L10.4306 58.4667L9.19294 57.229L8.48568 55.5787C8.60356 55.1465 8.56427 54.8714 8.36781 54.7536V51.7477L6.42284 51.3941C5.42481 51.0169 4.61932 50.4471 4.00636 49.6849L3.06335 48.0346L2.70972 46.2664V36.4827L3.06335 35.0681L4.18318 33.7125C4.63111 33.296 5.20085 33.0603 5.89239 33.0053L6.12815 32.2391L6.48178 29.9994L6.71753 29.41L7.07116 27.1704L7.30691 26.581L9.78233 14.3218C10.1517 13.2373 10.7214 12.3533 11.4915 11.6696C12.1831 11.0645 13.0475 10.6323 14.0848 10.3729C14.5799 10.5144 14.8943 10.4751 15.0278 10.2551H19.684V5.36317L20.0376 4.1844L20.8038 3.30032L21.3932 2.94669L22.3362 2.71094ZM23.456 6.483V10.2551H23.5739H38.5443V6.60087V6.483H23.456ZM14.7332 14.0271L14.0259 14.3807C13.5544 14.6951 13.2793 15.2059 13.2008 15.9131L9.78233 32.7695V32.8874H52.3359L51.1571 27.7008L50.8035 25.4612L50.5677 24.8718L50.2141 22.6321L49.9783 22.0427L49.6247 19.8031L49.3889 19.2137L49.0353 16.974L48.6817 15.4416L48.3281 14.7344L47.385 14.0271H14.7332ZM6.48178 36.6595V46.679L6.95328 47.5041L7.8963 47.9756H54.2219L55.047 47.5041L55.5185 46.679V36.7773V36.6595H6.48178ZM12.1399 51.7477V55.0483L12.7292 55.5198H21.0985L21.57 55.0483V51.7477H12.1399ZM40.4303 51.7477V55.0483L41.0197 55.5198H49.3889L49.8605 55.0483V51.7477H40.4303Z" fill="#B00000" stroke="#B00000"/>
<path d="M11.02 40.4316C11.7587 40.4395 12.2892 40.6556 12.6114 41.08L13.0829 42.023V42.6124L12.4346 43.7322C12.1202 44.0465 11.6487 44.2037 11.02 44.2037C10.3206 44.078 9.82949 43.744 9.54659 43.2017L9.42871 41.7872L10.3128 40.6674L11.02 40.4316Z" fill="#B00000" stroke="#B00000"/>
<path d="M17.6211 40.4316H21.7468C22.4462 40.5574 22.9373 40.8914 23.2202 41.4336L23.456 42.4945C23.3302 43.1939 22.9963 43.685 22.454 43.9679L21.7468 44.2037H17.6211C16.9217 44.078 16.4305 43.744 16.1476 43.2017L15.9119 42.1409C16.014 41.6143 16.2301 41.2018 16.5602 40.9031L17.6211 40.4316Z" fill="#B00000" stroke="#B00000"/>
<path d="M40.2536 40.4316H44.3793C45.0787 40.5574 45.5699 40.8914 45.8528 41.4336L46.0886 42.4945C45.9628 43.1939 45.6288 43.685 45.0866 43.9679L44.3793 44.2037H40.2536C39.5542 44.078 39.0631 43.744 38.7802 43.2017L38.5444 42.1409C38.6466 41.6143 38.8627 41.2018 39.1928 40.9031L40.2536 40.4316Z" fill="#B00000" stroke="#B00000"/>
<path d="M50.6267 40.4316C51.3654 40.4395 51.8959 40.6556 52.2181 41.08L52.6896 42.023V42.6124L52.0413 43.7322C51.7269 44.0465 51.2554 44.2037 50.6267 44.2037C49.9273 44.078 49.4362 43.744 49.1533 43.2017L49.0354 41.7872L49.9195 40.6674L50.6267 40.4316Z" fill="#B00000" stroke="#B00000"/>
</g>
<defs>
<clipPath id="clip0_27837_9725">
<rect width="60.3529" height="60.3529" fill="white" transform="translate(0.82373 0.824219)"/>
</clipPath>
</defs>
</svg>
