<svg width="59" height="59" viewBox="0 0 59 59" fill="none" xmlns="http://www.w3.org/2000/svg">
<g id="Vector">
<path d="M17.6179 0.882812H10.4708C7.94346 0.882813 5.51962 1.8868 3.73251 3.67391C1.9454 5.46102 0.941407 7.88487 0.941407 10.4122V17.5593C0.941407 20.0866 1.9454 22.5105 3.73251 24.2976C5.51962 26.0847 7.94346 27.0887 10.4708 27.0887H17.6179C20.1452 27.0887 22.5691 26.0847 24.3562 24.2976C26.1433 22.5105 27.1473 20.0866 27.1473 17.5593V10.4122C27.1473 7.88487 26.1433 5.46102 24.3562 3.67391C22.5691 1.8868 20.1452 0.882813 17.6179 0.882812ZM22.3826 17.5593C22.3826 18.823 21.8806 20.0349 20.987 20.9284C20.0935 21.822 18.8816 22.324 17.6179 22.324H10.4708C9.20714 22.324 7.99522 21.822 7.10166 20.9284C6.20811 20.0349 5.70611 18.823 5.70611 17.5593V10.4122C5.70611 9.14855 6.20811 7.93662 7.10166 7.04307C7.99522 6.14951 9.20714 5.64752 10.4708 5.64752H17.6179C18.8816 5.64752 20.0935 6.14951 20.987 7.04307C21.8806 7.93662 22.3826 9.14855 22.3826 10.4122V17.5593Z" fill="#B00000"/>
<path d="M48.5883 0.882812H41.4413C38.9139 0.882813 36.4901 1.8868 34.703 3.67391C32.9158 5.46102 31.9118 7.88487 31.9118 10.4122V17.5593C31.9118 20.0866 32.9158 22.5105 34.703 24.2976C36.4901 26.0847 38.9139 27.0887 41.4413 27.0887H48.5883C51.1157 27.0887 53.5395 26.0847 55.3266 24.2976C57.1138 22.5105 58.1177 20.0866 58.1177 17.5593V10.4122C58.1177 7.88487 57.1138 5.46102 55.3266 3.67391C53.5395 1.8868 51.1157 0.882813 48.5883 0.882812ZM53.353 17.5593C53.353 18.823 52.851 20.0349 51.9575 20.9284C51.0639 21.822 49.852 22.324 48.5883 22.324H41.4413C40.1776 22.324 38.9657 21.822 38.0721 20.9284C37.1786 20.0349 36.6766 18.823 36.6766 17.5593V10.4122C36.6766 9.14855 37.1786 7.93662 38.0721 7.04307C38.9657 6.14951 40.1776 5.64752 41.4413 5.64752H48.5883C49.852 5.64752 51.0639 6.14951 51.9575 7.04307C52.851 7.93662 53.353 9.14855 53.353 10.4122V17.5593Z" fill="#F67B7B"/>
<path d="M17.6179 31.8534H10.4708C7.94346 31.8534 5.51962 32.8574 3.73251 34.6445C1.9454 36.4316 0.941406 38.8555 0.941406 41.3828V48.5299C0.941406 51.0572 1.9454 53.4811 3.73251 55.2682C5.51962 57.0553 7.94346 58.0593 10.4708 58.0593H17.6179C20.1452 58.0593 22.5691 57.0553 24.3562 55.2682C26.1433 53.4811 27.1473 51.0572 27.1473 48.5299V41.3828C27.1473 38.8555 26.1433 36.4316 24.3562 34.6445C22.5691 32.8574 20.1452 31.8534 17.6179 31.8534ZM22.3826 48.5299C22.3826 49.7936 21.8806 51.0055 20.987 51.899C20.0935 52.7926 18.8816 53.2946 17.6179 53.2946H10.4708C9.20714 53.2946 7.99522 52.7926 7.10166 51.899C6.20811 51.0055 5.70611 49.7936 5.70611 48.5299V41.3828C5.70611 40.1191 6.20811 38.9072 7.10166 38.0137C7.99522 37.1201 9.20714 36.6181 10.4708 36.6181H17.6179C18.8816 36.6181 20.0935 37.1201 20.987 38.0137C21.8806 38.9072 22.3826 40.1191 22.3826 41.3828V48.5299Z" fill="#B00000"/>
<path d="M48.5885 31.8534H41.4414C38.9141 31.8534 36.4902 32.8574 34.7031 34.6445C32.916 36.4316 31.912 38.8555 31.912 41.3828V48.5299C31.912 51.0572 32.916 53.4811 34.7031 55.2682C36.4902 57.0553 38.9141 58.0593 41.4414 58.0593H48.5885C51.1158 58.0593 53.5397 57.0553 55.3268 55.2682C57.1139 53.4811 58.1179 51.0572 58.1179 48.5299V41.3828C58.1179 38.8555 57.1139 36.4316 55.3268 34.6445C53.5397 32.8574 51.1158 31.8534 48.5885 31.8534ZM53.3532 48.5299C53.3532 49.7936 52.8512 51.0055 51.9576 51.899C51.0641 52.7926 49.8521 53.2946 48.5885 53.2946H41.4414C40.1777 53.2946 38.9658 52.7926 38.0723 51.899C37.1787 51.0055 36.6767 49.7936 36.6767 48.5299V41.3828C36.6767 40.1191 37.1787 38.9072 38.0723 38.0137C38.9658 37.1201 40.1777 36.6181 41.4414 36.6181H48.5885C49.8521 36.6181 51.0641 37.1201 51.9576 38.0137C52.8512 38.9072 53.3532 40.1191 53.3532 41.3828V48.5299Z" fill="#B00000"/>
</g>
</svg>
