<svg width="62" height="62" viewBox="0 0 62 62" fill="none" xmlns="http://www.w3.org/2000/svg">
<g clip-path="url(#clip0_27837_9696)">
<path opacity="0.788235" d="M32.7095 2.5918L34.1829 2.65074L32.7095 2.70967V2.5918Z" fill="#B00000" stroke="#B00000"/>
<path opacity="0.788235" d="M34.7134 2.5918L36.069 2.65074L34.7134 2.70967V2.5918Z" fill="#B00000" stroke="#B00000"/>
<path opacity="0.788235" d="M31.4128 2.71094L31.9433 2.76988L31.4128 2.82881V2.71094Z" fill="#B00000" stroke="#B00000"/>
<path opacity="0.788235" d="M36.9529 2.71094L37.3655 2.76988L36.9529 2.82881V2.71094Z" fill="#B00000" stroke="#B00000"/>
<path opacity="0.788235" d="M30.5876 2.82812L30.8823 2.88706L30.5876 2.946V2.82812Z" fill="#B00000" stroke="#B00000"/>
<path opacity="0.788235" d="M37.896 2.82812L38.3086 2.88706L37.896 2.946V2.82812Z" fill="#B00000" stroke="#B00000"/>
<path opacity="0.788235" d="M29.8804 2.94531L30.1751 3.00425L29.8804 3.06319V2.94531Z" fill="#B00000" stroke="#B00000"/>
<path opacity="0.788235" d="M29.291 3.06445L29.5857 3.12339L29.291 3.18233V3.06445Z" fill="#B00000" stroke="#B00000"/>
<path opacity="0.788235" d="M39.3105 3.06445L39.6052 3.12339L39.3105 3.18233V3.06445Z" fill="#B00000" stroke="#B00000"/>
<path opacity="0.788235" d="M28.7017 3.18164L28.9964 3.24058L28.7017 3.29952V3.18164Z" fill="#B00000" stroke="#B00000"/>
<path opacity="0.788235" d="M46.501 5.65625L46.6189 5.892" stroke="#B00000"/>
<path opacity="0.788235" d="M21.8647 5.89258L21.7468 6.12833" stroke="#B00000"/>
<path opacity="0.788235" d="M32.4736 6.12891L33.3577 6.18784L32.4736 6.24678V6.12891Z" fill="#B00000" stroke="#B00000"/>
<path opacity="0.788235" d="M35.5386 6.12891L36.3048 6.18784L35.5386 6.24678V6.12891Z" fill="#B00000" stroke="#B00000"/>
<path opacity="0.788235" d="M21.2753 6.24609L21.1575 6.48185" stroke="#B00000"/>
<path opacity="0.788235" d="M31.5308 6.24609L31.9433 6.30503L31.5308 6.36397V6.24609Z" fill="#B00000" stroke="#B00000"/>
<path opacity="0.788235" d="M36.9529 6.24609L37.3655 6.30503L36.9529 6.36397V6.24609Z" fill="#B00000" stroke="#B00000"/>
<path opacity="0.788235" d="M30.8235 6.36523L31.1182 6.42417L30.8235 6.48311V6.36523Z" fill="#B00000" stroke="#B00000"/>
<path opacity="0.788235" d="M37.7781 6.36523L38.0728 6.42417L37.7781 6.48311V6.36523Z" fill="#B00000" stroke="#B00000"/>
<path opacity="0.788235" d="M47.6797 6.36523L47.7976 6.60099" stroke="#B00000"/>
<path opacity="0.788235" d="M20.9218 6.48242L20.804 6.71818" stroke="#B00000"/>
<path opacity="0.788235" d="M30.1162 6.48242L30.4109 6.54136L30.1162 6.6003V6.48242Z" fill="#B00000" stroke="#B00000"/>
<path opacity="0.788235" d="M29.5269 6.59961L29.8215 6.65855L29.5269 6.71749V6.59961Z" fill="#B00000" stroke="#B00000"/>
<path opacity="0.788235" d="M48.0334 6.59961L48.1513 6.83536" stroke="#B00000"/>
<path opacity="0.788235" d="M20.5681 6.71875L20.4502 6.9545" stroke="#B00000"/>
<path opacity="0.788235" d="M48.387 6.83594L48.5048 7.07169" stroke="#B00000"/>
<path opacity="0.788235" d="M20.2146 6.95312L20.0967 7.18888" stroke="#B00000"/>
<path opacity="0.788235" d="M48.7407 7.07227L48.8586 7.30802" stroke="#B00000"/>
<path opacity="0.788235" d="M19.8608 7.18945L19.7429 7.42521" stroke="#B00000"/>
<path opacity="0.788235" d="M49.2122 7.42578L49.33 7.66153" stroke="#B00000"/>
<path opacity="0.788235" d="M19.3894 7.54297L19.2715 7.77872" stroke="#B00000"/>
<path opacity="0.788235" d="M49.6836 7.7793L49.8015 8.01505" stroke="#B00000"/>
<path opacity="0.788235" d="M18.9178 7.89648L18.5642 8.36799" stroke="#B00000"/>
<path opacity="0.788235" d="M50.2729 8.25L50.5087 8.60363" stroke="#B00000"/>
<path opacity="0.788235" d="M18.2105 8.48633L17.739 9.07571" stroke="#B00000"/>
<path opacity="0.788235" d="M24.2224 8.60352L24.1045 8.83927" stroke="#B00000"/>
<path opacity="0.788235" d="M44.9685 8.83984L45.0864 9.0756" stroke="#B00000"/>
<path opacity="0.788235" d="M50.9802 8.83984L52.9841 10.9616" stroke="#B00000"/>
<path opacity="0.788235" d="M23.3972 9.07617L23.2793 9.31193" stroke="#B00000"/>
<path opacity="0.788235" d="M45.5581 9.19336L45.676 9.42911" stroke="#B00000"/>
<path opacity="0.788235" d="M16.9139 9.66406L16.5603 10.1356" stroke="#B00000"/>
<path opacity="0.788235" d="M21.9826 10.0195L21.8647 10.2553" stroke="#B00000"/>
<path opacity="0.788235" d="M46.9724 10.1367L47.0903 10.3725" stroke="#B00000"/>
<path opacity="0.788235" d="M21.6291 10.2539L21.3933 10.6075" stroke="#B00000"/>
<path opacity="0.788235" d="M47.4441 10.4902L47.6798 10.8439" stroke="#B00000"/>
<path opacity="0.788235" d="M21.1576 10.6074L20.804 11.0789" stroke="#B00000"/>
<path opacity="0.788235" d="M15.8531 10.8438L15.3816 11.4331" stroke="#B00000"/>
<path opacity="0.788235" d="M48.0334 10.9609L48.2692 11.3146" stroke="#B00000"/>
<path opacity="0.788235" d="M20.4503 11.1973L19.9788 11.7866" stroke="#B00000"/>
<path opacity="0.788235" d="M53.3379 11.3145L53.5736 11.6681" stroke="#B00000"/>
<path opacity="0.788235" d="M15.1457 11.668L14.9099 12.0216" stroke="#B00000"/>
<path opacity="0.788235" d="M48.8586 11.668L50.1553 13.0825" stroke="#B00000"/>
<path opacity="0.788235" d="M53.9272 12.0234L54.0451 12.2592" stroke="#B00000"/>
<path opacity="0.788235" d="M14.6743 12.2578L14.5564 12.4936" stroke="#B00000"/>
<path opacity="0.788235" d="M54.2808 12.4941L54.3986 12.7299" stroke="#B00000"/>
<path opacity="0.788235" d="M14.3205 12.7305L14.2026 12.9662" stroke="#B00000"/>
<path opacity="0.788235" d="M18.682 12.9648L18.2104 13.5542" stroke="#B00000"/>
<path opacity="0.788235" d="M54.6345 12.9648L54.7524 13.2006" stroke="#B00000"/>
<path opacity="0.788235" d="M13.967 13.2012L13.8491 13.4369" stroke="#B00000"/>
<path opacity="0.788235" d="M54.8704 13.3184L54.9882 13.5541" stroke="#B00000"/>
<path opacity="0.788235" d="M13.7312 13.5547L13.6133 13.7904" stroke="#B00000"/>
<path opacity="0.788235" d="M50.6267 13.5547L50.8625 13.9083" stroke="#B00000"/>
<path opacity="0.788235" d="M55.106 13.6719L55.2238 13.9076" stroke="#B00000"/>
<path opacity="0.788235" d="M13.4956 13.9082L13.3777 14.144" stroke="#B00000"/>
<path opacity="0.788235" d="M17.8568 13.9082L17.6211 14.2618" stroke="#B00000"/>
<path opacity="0.788235" d="M55.3418 14.0273L55.4597 14.2631" stroke="#B00000"/>
<path opacity="0.788235" d="M51.0981 14.1445L51.3339 14.4982" stroke="#B00000"/>
<path opacity="0.788235" d="M13.1418 14.498L13.0239 14.7338" stroke="#B00000"/>
<path opacity="0.788235" d="M17.3855 14.498L17.2676 14.7338" stroke="#B00000"/>
<path opacity="0.788235" d="M55.6953 14.6152L55.8132 14.851" stroke="#B00000"/>
<path opacity="0.788235" d="M51.5698 14.7344L51.6877 14.9701" stroke="#B00000"/>
<path opacity="0.788235" d="M17.0317 14.9688L16.9138 15.2045" stroke="#B00000"/>
<path opacity="0.788235" d="M51.8054 15.0879L51.9233 15.3236" stroke="#B00000"/>
<path opacity="0.788235" d="M12.6704 15.3223L12.5525 15.558" stroke="#B00000"/>
<path opacity="0.788235" d="M16.7961 15.3223L16.6782 15.558" stroke="#B00000"/>
<path opacity="0.788235" d="M16.5603 15.6758L16.4424 15.9115" stroke="#B00000"/>
<path opacity="0.788235" d="M16.3244 16.0312L16.2065 16.267" stroke="#B00000"/>
<path opacity="0.788235" d="M32.5916 16.0312L36.0689 16.0902L32.5916 16.1491V16.0312Z" fill="#B00000" stroke="#B00000"/>
<path opacity="0.788235" d="M31.0591 16.1484L31.5895 16.2074L31.0591 16.2663V16.1484Z" fill="#B00000" stroke="#B00000"/>
<path opacity="0.788235" d="M36.9529 16.1484L37.6012 16.2074L36.9529 16.2663V16.1484Z" fill="#B00000" stroke="#B00000"/>
<path opacity="0.788235" d="M52.5127 16.1484L52.6306 16.3842" stroke="#B00000"/>
<path opacity="0.788235" d="M29.9983 16.2656L30.4109 16.3246L29.9983 16.3835V16.2656Z" fill="#B00000" stroke="#B00000"/>
<path opacity="0.788235" d="M38.1318 16.2656L38.5444 16.3246L38.1318 16.3835V16.2656Z" fill="#B00000" stroke="#B00000"/>
<path opacity="0.788235" d="M29.1731 16.3848L29.5857 16.4437L29.1731 16.5026V16.3848Z" fill="#B00000" stroke="#B00000"/>
<path opacity="0.788235" d="M39.0747 16.3848L39.3694 16.4437L39.0747 16.5026V16.3848Z" fill="#B00000" stroke="#B00000"/>
<path opacity="0.788235" d="M28.4658 16.502L28.7605 16.5609L28.4658 16.6198V16.502Z" fill="#B00000" stroke="#B00000"/>
<path opacity="0.788235" d="M39.782 16.502L40.0767 16.5609L39.782 16.6198V16.502Z" fill="#B00000" stroke="#B00000"/>
<path opacity="0.788235" d="M15.9709 16.6191L15.853 16.8549" stroke="#B00000"/>
<path opacity="0.788235" d="M27.8765 16.6191L28.1712 16.6781L27.8765 16.737V16.6191Z" fill="#B00000" stroke="#B00000"/>
<path opacity="0.788235" d="M40.4893 16.6191L40.784 16.6781L40.4893 16.737V16.6191Z" fill="#B00000" stroke="#B00000"/>
<path opacity="0.788235" d="M27.2871 16.7383L27.5818 16.7972L27.2871 16.8562V16.7383Z" fill="#B00000" stroke="#B00000"/>
<path opacity="0.788235" d="M52.8665 16.7383L52.9843 16.974" stroke="#B00000"/>
<path opacity="0.788235" d="M48.387 19.2129L48.5048 19.4486" stroke="#B00000"/>
<path opacity="0.788235" d="M19.6252 19.5664L19.5073 19.8022" stroke="#B00000"/>
<path opacity="0.788235" d="M32.1201 19.5664L33.1221 19.6253L32.1201 19.6843V19.5664Z" fill="#B00000" stroke="#B00000"/>
<path opacity="0.788235" d="M35.5386 19.5664L36.5405 19.6253L35.5386 19.6843V19.5664Z" fill="#B00000" stroke="#B00000"/>
<path opacity="0.788235" d="M30.9412 19.6836L31.3537 19.7425L30.9412 19.8015V19.6836Z" fill="#B00000" stroke="#B00000"/>
<path opacity="0.788235" d="M37.1887 19.6836L37.7192 19.7425L37.1887 19.8015V19.6836Z" fill="#B00000" stroke="#B00000"/>
<path opacity="0.788235" d="M49.0942 19.6836L49.2121 19.9193" stroke="#B00000"/>
<path opacity="0.788235" d="M19.2714 19.8027L19.0356 20.1564" stroke="#B00000"/>
<path opacity="0.788235" d="M29.9983 19.8027L30.4109 19.8617L29.9983 19.9206V19.8027Z" fill="#B00000" stroke="#B00000"/>
<path opacity="0.788235" d="M38.2495 19.8027L38.5442 19.8617L38.2495 19.9206V19.8027Z" fill="#B00000" stroke="#B00000"/>
<path opacity="0.788235" d="M29.291 19.9199L29.5857 19.9789L29.291 20.0378V19.9199Z" fill="#B00000" stroke="#B00000"/>
<path opacity="0.788235" d="M39.0747 19.9199L39.3694 19.9789L39.0747 20.0378V19.9199Z" fill="#B00000" stroke="#B00000"/>
<path opacity="0.788235" d="M49.448 19.9199L49.8016 20.3914" stroke="#B00000"/>
<path opacity="0.788235" d="M39.6641 20.0391L39.9588 20.098L39.6641 20.1569V20.0391Z" fill="#B00000" stroke="#B00000"/>
<path opacity="0.788235" d="M40.2534 20.1562L40.5481 20.2152L40.2534 20.2741V20.1562Z" fill="#B00000" stroke="#B00000"/>
<path opacity="0.788235" d="M18.5643 20.3926L18.0928 20.982" stroke="#B00000"/>
<path opacity="0.788235" d="M50.7446 21.2168L50.9804 21.5704" stroke="#B00000"/>
<path opacity="0.788235" d="M17.7392 21.334L17.5034 21.6876" stroke="#B00000"/>
<path opacity="0.788235" d="M51.2161 21.8066L51.3339 22.0424" stroke="#B00000"/>
<path opacity="0.788235" d="M10.077 22.043L10.1359 22.3377H10.0181L10.077 22.043Z" fill="#B00000" stroke="#B00000"/>
<path opacity="0.788235" d="M51.4519 22.1602L51.5698 22.3959" stroke="#B00000"/>
<path opacity="0.788235" d="M46.8547 22.3965L46.9726 22.6322" stroke="#B00000"/>
<path opacity="0.788235" d="M16.914 22.5137L16.7961 22.7494" stroke="#B00000"/>
<path opacity="0.788235" d="M21.3933 22.6309L21.2754 22.8666" stroke="#B00000"/>
<path opacity="0.788235" d="M47.2083 22.6309L47.5619 23.1024" stroke="#B00000"/>
<path opacity="0.788235" d="M9.84141 23.3379L9.90035 23.6326H9.78247L9.84141 23.3379Z" fill="#B00000" stroke="#B00000"/>
<path opacity="0.788235" d="M48.0334 23.457L48.2692 23.8107" stroke="#B00000"/>
<path opacity="0.788235" d="M58.9959 23.5742L59.0549 23.9868H58.937L58.9959 23.5742Z" fill="#B00000" stroke="#B00000"/>
<path opacity="0.788235" d="M20.3322 23.6914L20.2144 23.9272" stroke="#B00000"/>
<path opacity="0.788235" d="M55.4596 23.8105L55.5185 24.1052H55.4006L55.4596 23.8105Z" fill="#B00000" stroke="#B00000"/>
<path opacity="0.788235" d="M9.72349 24.0469L9.78243 24.4594H9.66455L9.72349 24.0469Z" fill="#B00000" stroke="#B00000"/>
<path opacity="0.788235" d="M20.0966 24.0469L19.9788 24.2826" stroke="#B00000"/>
<path opacity="0.788235" d="M13.2596 24.1641L13.3186 24.4588H13.2007L13.2596 24.1641Z" fill="#B00000" stroke="#B00000"/>
<path opacity="0.788235" d="M48.6228 24.2812L48.7407 24.517" stroke="#B00000"/>
<path opacity="0.788235" d="M59.1139 24.4004L59.1728 24.813H59.0549L59.1139 24.4004Z" fill="#B00000" stroke="#B00000"/>
<path opacity="0.788235" d="M55.5775 24.5176L55.6364 24.9301H55.5186L55.5775 24.5176Z" fill="#B00000" stroke="#B00000"/>
<path opacity="0.788235" d="M22.6899 24.7539L22.572 24.9897" stroke="#B00000"/>
<path opacity="0.788235" d="M9.60557 24.9883L9.66451 25.6366H9.54663L9.60557 24.9883Z" fill="#B00000" stroke="#B00000"/>
<path opacity="0.788235" d="M13.1419 25.1074L13.2009 25.52H13.083L13.1419 25.1074Z" fill="#B00000" stroke="#B00000"/>
<path opacity="0.788235" d="M55.6954 25.4609L55.7544 26.2271H55.6365L55.6954 25.4609Z" fill="#B00000" stroke="#B00000"/>
<path opacity="0.788235" d="M59.2318 25.5781L59.2907 26.4622H59.1729L59.2318 25.5781Z" fill="#B00000" stroke="#B00000"/>
<path opacity="0.788235" d="M15.7352 25.6953L15.7941 25.99H15.6763L15.7352 25.6953Z" fill="#B00000" stroke="#B00000"/>
<path opacity="0.788235" d="M52.8663 25.8145L52.9253 26.227H52.8074L52.8663 25.8145Z" fill="#B00000" stroke="#B00000"/>
<path opacity="0.788235" d="M29.9983 26.0508L30.1162 26.2865" stroke="#B00000"/>
<path opacity="0.788235" d="M13.024 26.5215L13.083 28.4665H12.9651L13.024 26.5215Z" fill="#B00000" stroke="#B00000"/>
<path opacity="0.788235" d="M19.1537 26.5215L19.2126 27.8771H19.0947L19.1537 26.5215Z" fill="#B00000" stroke="#B00000"/>
<path opacity="0.788235" d="M15.6173 26.6387L15.6762 27.7585H15.5583L15.6173 26.6387Z" fill="#B00000" stroke="#B00000"/>
<path opacity="0.788235" d="M38.0139 26.6387L37.896 26.8744" stroke="#B00000"/>
<path opacity="0.788235" d="M22.6899 26.7578L22.8078 26.9936" stroke="#B00000"/>
<path opacity="0.788235" d="M45.9117 26.7578L45.4402 27.3472" stroke="#B00000"/>
<path opacity="0.788235" d="M49.4479 26.7578L49.5068 27.6419H49.3889L49.4479 26.7578Z" fill="#B00000" stroke="#B00000"/>
<path opacity="0.788235" d="M9.48765 27.1113L9.54659 27.6418H9.42871L9.48765 27.1113Z" fill="#B00000" stroke="#B00000"/>
<path opacity="0.788235" d="M23.0435 27.1113L23.1613 27.3471" stroke="#B00000"/>
<path opacity="0.788235" d="M30.8233 27.1113L30.8823 27.406H30.7644L30.8233 27.1113Z" fill="#B00000" stroke="#B00000"/>
<path opacity="0.788235" d="M24.3401 27.6992C24.5365 27.7778 24.5955 27.9939 24.5169 28.3475H24.399L24.3401 27.6992Z" fill="#B00000" stroke="#B00000"/>
<path opacity="0.788235" d="M44.2613 27.6992L44.2023 27.876L44.1434 28.4065L44.0845 27.876L44.2613 27.6992Z" fill="#B00000" stroke="#B00000"/>
<path opacity="0.788235" d="M30.8233 27.8184L30.8823 28.1131H30.7644L30.8233 27.8184Z" fill="#B00000" stroke="#B00000"/>
<path opacity="0.788235" d="M49.3299 28.1719L49.3889 28.4666H49.271L49.3299 28.1719Z" fill="#B00000" stroke="#B00000"/>
<path opacity="0.788235" d="M19.2713 28.2891L19.3303 28.5838H19.2124L19.2713 28.2891Z" fill="#B00000" stroke="#B00000"/>
<path opacity="0.788235" d="M37.8961 28.2891L38.0729 28.5838L37.8372 28.4659L37.8961 28.2891Z" fill="#B00000" stroke="#B00000"/>
<path opacity="0.788235" d="M52.8663 28.2891L52.9253 28.7016H52.8074L52.8663 28.2891Z" fill="#B00000" stroke="#B00000"/>
<path opacity="0.788235" d="M59.2318 28.4082L59.2907 29.4102H59.1729L59.2318 28.4082Z" fill="#B00000" stroke="#B00000"/>
<path opacity="0.788235" d="M15.7352 28.5254L15.7941 28.8201H15.6763L15.7352 28.5254Z" fill="#B00000" stroke="#B00000"/>
<path opacity="0.788235" d="M55.6954 28.6426L55.7544 29.4088H55.6365L55.6954 28.6426Z" fill="#B00000" stroke="#B00000"/>
<path opacity="0.788235" d="M30.1162 28.9961L29.9983 29.2318" stroke="#B00000"/>
<path opacity="0.788235" d="M38.4854 28.9961L38.6032 29.2318" stroke="#B00000"/>
<path opacity="0.788235" d="M9.60557 29.1152L9.66451 29.7636H9.54663L9.60557 29.1152Z" fill="#B00000" stroke="#B00000"/>
<path opacity="0.788235" d="M15.8531 29.1152L15.9121 29.4099H15.7942L15.8531 29.1152Z" fill="#B00000" stroke="#B00000"/>
<path opacity="0.788235" d="M24.8118 29.1152L25.2833 29.7046" stroke="#B00000"/>
<path opacity="0.788235" d="M28.2301 29.2324L27.8765 29.7039" stroke="#B00000"/>
<path opacity="0.788235" d="M43.672 29.2324L43.3184 29.7039" stroke="#B00000"/>
<path opacity="0.788235" d="M13.1419 29.3496L13.2009 29.8801H13.083L13.1419 29.3496Z" fill="#B00000" stroke="#B00000"/>
<path opacity="0.788235" d="M39.3105 29.3496L39.6052 29.4085L39.3105 29.4675V29.3496Z" fill="#B00000" stroke="#B00000"/>
<path opacity="0.788235" d="M40.6072 29.4688L40.8429 29.8224" stroke="#B00000"/>
<path opacity="0.788235" d="M27.6406 29.7031L27.5228 29.9389L27.3459 29.8799L27.6406 29.7031Z" fill="#B00000" stroke="#B00000"/>
<path opacity="0.788235" d="M55.5775 30.0586L55.6364 30.3533H55.5186L55.5775 30.0586Z" fill="#B00000" stroke="#B00000"/>
<path opacity="0.788235" d="M59.1139 30.0586L59.1728 30.4712H59.0549L59.1139 30.0586Z" fill="#B00000" stroke="#B00000"/>
<path opacity="0.788235" d="M19.9788 30.1758L20.0966 30.4115" stroke="#B00000"/>
<path opacity="0.788235" d="M9.72349 30.4121L9.78243 30.8247H9.66455L9.72349 30.4121Z" fill="#B00000" stroke="#B00000"/>
<path opacity="0.788235" d="M13.2596 30.4121L13.3186 30.7068H13.2007L13.2596 30.4121Z" fill="#B00000" stroke="#B00000"/>
<path opacity="0.788235" d="M20.2144 30.5293L20.4501 30.8829" stroke="#B00000"/>
<path opacity="0.788235" d="M48.2692 30.6465L47.9155 31.118" stroke="#B00000"/>
<path opacity="0.788235" d="M55.4596 30.8828L55.5185 31.1775H55.4006L55.4596 30.8828Z" fill="#B00000" stroke="#B00000"/>
<path opacity="0.788235" d="M58.9959 31L59.0549 31.2947H58.937L58.9959 31Z" fill="#B00000" stroke="#B00000"/>
<path opacity="0.788235" d="M13.3775 31.1191L13.4365 31.4138H13.3186L13.3775 31.1191Z" fill="#B00000" stroke="#B00000"/>
<path opacity="0.788235" d="M9.84141 31.2363L9.90035 31.531H9.78247L9.84141 31.2363Z" fill="#B00000" stroke="#B00000"/>
<path opacity="0.788235" d="M47.5619 31.3535L47.3262 31.7071" stroke="#B00000"/>
<path opacity="0.788235" d="M21.1575 31.4727L21.3932 31.8263" stroke="#B00000"/>
<path opacity="0.788235" d="M51.9233 31.4727L51.8054 31.7084" stroke="#B00000"/>
<path opacity="0.788235" d="M55.3417 31.4727L55.4006 31.7673H55.2827L55.3417 31.4727Z" fill="#B00000" stroke="#B00000"/>
<path opacity="0.788235" d="M16.7961 31.707L16.914 31.9428" stroke="#B00000"/>
<path opacity="0.788235" d="M32.7095 31.707L35.9511 31.766L32.7095 31.8249V31.707Z" fill="#B00000" stroke="#B00000"/>
<path opacity="0.788235" d="M58.878 31.707L58.937 32.0017H58.8191L58.878 31.707Z" fill="#B00000" stroke="#B00000"/>
<path opacity="0.788235" d="M21.6289 31.8262L21.7468 32.0619" stroke="#B00000"/>
<path opacity="0.788235" d="M31.0591 31.8262L31.7074 31.8851L31.0591 31.944V31.8262Z" fill="#B00000" stroke="#B00000"/>
<path opacity="0.788235" d="M36.9529 31.8262L37.6012 31.8851L36.9529 31.944V31.8262Z" fill="#B00000" stroke="#B00000"/>
<path opacity="0.788235" d="M46.9726 31.8262L46.8547 32.0619" stroke="#B00000"/>
<path opacity="0.788235" d="M29.9983 31.9434L30.4109 32.0023L29.9983 32.0612V31.9434Z" fill="#B00000" stroke="#B00000"/>
<path opacity="0.788235" d="M38.2495 31.9434L38.6621 32.0023L38.2495 32.0612V31.9434Z" fill="#B00000" stroke="#B00000"/>
<path opacity="0.788235" d="M29.1731 32.0625L29.5857 32.1214L29.1731 32.1804V32.0625Z" fill="#B00000" stroke="#B00000"/>
<path opacity="0.788235" d="M39.0747 32.0625L39.4873 32.1214L39.0747 32.1804V32.0625Z" fill="#B00000" stroke="#B00000"/>
<path opacity="0.788235" d="M51.5698 32.0625L51.4519 32.2983" stroke="#B00000"/>
<path opacity="0.788235" d="M28.4658 32.1797L28.7605 32.2386L28.4658 32.2976V32.1797Z" fill="#B00000" stroke="#B00000"/>
<path opacity="0.788235" d="M39.8999 32.1797L40.1946 32.2386L39.8999 32.2976V32.1797Z" fill="#B00000" stroke="#B00000"/>
<path opacity="0.788235" d="M17.1497 32.2969L17.2675 32.5326" stroke="#B00000"/>
<path opacity="0.788235" d="M58.7601 32.2969L58.819 32.5916H58.7012L58.7601 32.2969Z" fill="#B00000" stroke="#B00000"/>
<path opacity="0.788235" d="M51.3339 32.416L51.2161 32.6518" stroke="#B00000"/>
<path opacity="0.788235" d="M26.6978 32.5332L26.9924 32.5921L26.6978 32.6511V32.5332Z" fill="#B00000" stroke="#B00000"/>
<path opacity="0.788235" d="M41.668 32.5332L41.9627 32.5921L41.668 32.6511V32.5332Z" fill="#B00000" stroke="#B00000"/>
<path opacity="0.788235" d="M55.1061 32.5332L55.165 32.8279H55.0471L55.1061 32.5332Z" fill="#B00000" stroke="#B00000"/>
<path opacity="0.788235" d="M17.5034 32.7695L17.7392 33.1232" stroke="#B00000"/>
<path opacity="0.788235" d="M23.8687 32.7695L24.1633 32.8285L23.8687 32.8874V32.7695Z" fill="#B00000" stroke="#B00000"/>
<path opacity="0.788235" d="M25.519 32.7695L25.9316 32.8285L25.519 32.8874V32.7695Z" fill="#B00000" stroke="#B00000"/>
<path opacity="0.788235" d="M42.8469 32.7695L43.1416 32.8285L42.8469 32.8874V32.7695Z" fill="#B00000" stroke="#B00000"/>
<path opacity="0.788235" d="M44.3792 32.7695L44.7917 32.8285L44.3792 32.8874V32.7695Z" fill="#B00000" stroke="#B00000"/>
<path opacity="0.788235" d="M50.9804 32.8867L50.7446 33.2403" stroke="#B00000"/>
<path opacity="0.788235" d="M10.1949 33.0039L10.2539 33.2986H10.136L10.1949 33.0039Z" fill="#B00000" stroke="#B00000"/>
<path opacity="0.788235" d="M58.5245 33.3574L58.5835 33.6521H58.4656L58.5245 33.3574Z" fill="#B00000" stroke="#B00000"/>
<path opacity="0.788235" d="M49.8016 34.0664L49.448 34.5379" stroke="#B00000"/>
<path opacity="0.788235" d="M18.9177 34.1836L19.1535 34.5372" stroke="#B00000"/>
<path opacity="0.788235" d="M49.2121 34.5371L49.0942 34.7729" stroke="#B00000"/>
<path opacity="0.788235" d="M19.5073 34.6543L19.6252 34.8901" stroke="#B00000"/>
<path opacity="0.788235" d="M48.5048 35.0078L48.387 35.2436" stroke="#B00000"/>
<path opacity="0.788235" d="M32.4736 35.2441L34.1828 35.3031L32.4736 35.362V35.2441Z" fill="#B00000" stroke="#B00000"/>
<path opacity="0.788235" d="M34.4775 35.2441L36.1868 35.3031L34.4775 35.362V35.2441Z" fill="#B00000" stroke="#B00000"/>
<path opacity="0.788235" d="M31.0591 35.3613L31.5895 35.4203L31.0591 35.4792V35.3613Z" fill="#B00000" stroke="#B00000"/>
<path opacity="0.788235" d="M37.0708 35.3613L37.6012 35.4203L37.0708 35.4792V35.3613Z" fill="#B00000" stroke="#B00000"/>
<path opacity="0.788235" d="M30.1162 35.4805L30.5288 35.5394L30.1162 35.5983V35.4805Z" fill="#B00000" stroke="#B00000"/>
<path opacity="0.788235" d="M38.1318 35.4805L38.5444 35.5394L38.1318 35.5983V35.4805Z" fill="#B00000" stroke="#B00000"/>
<path opacity="0.788235" d="M29.4089 35.5977L29.7036 35.6566L29.4089 35.7155V35.5977Z" fill="#B00000" stroke="#B00000"/>
<path opacity="0.788235" d="M38.9568 35.5977L39.2515 35.6566L38.9568 35.7155V35.5977Z" fill="#B00000" stroke="#B00000"/>
<path opacity="0.788235" d="M28.7017 35.7148L28.9964 35.7738L28.7017 35.8327V35.7148Z" fill="#B00000" stroke="#B00000"/>
<path opacity="0.788235" d="M39.6641 35.7148L39.9588 35.7738L39.6641 35.8327V35.7148Z" fill="#B00000" stroke="#B00000"/>
<path opacity="0.788235" d="M40.843 35.9512L41.1377 36.0101L40.843 36.069V35.9512Z" fill="#B00000" stroke="#B00000"/>
<path opacity="0.788235" d="M26.4619 36.1875L26.7566 36.2464L26.4619 36.3054V36.1875Z" fill="#B00000" stroke="#B00000"/>
<path opacity="0.788235" d="M41.9038 36.1875L42.1985 36.2464L41.9038 36.3054V36.1875Z" fill="#B00000" stroke="#B00000"/>
<path opacity="0.788235" d="M45.3223 36.1875L45.617 36.2464L45.3223 36.3054V36.1875Z" fill="#B00000" stroke="#B00000"/>
<path opacity="0.788235" d="M23.7507 36.3047L24.2812 36.3636L23.7507 36.4226V36.3047Z" fill="#B00000" stroke="#B00000"/>
<path opacity="0.788235" d="M25.4011 36.3047L26.0494 36.3636L25.4011 36.4226V36.3047Z" fill="#B00000" stroke="#B00000"/>
<path opacity="0.788235" d="M42.6111 36.3047L43.2594 36.3636L42.6111 36.4226V36.3047Z" fill="#B00000" stroke="#B00000"/>
<path opacity="0.788235" d="M44.2612 36.3047L44.9096 36.3636L44.2612 36.4226V36.3047Z" fill="#B00000" stroke="#B00000"/>
<path opacity="0.788235" d="M11.2558 36.541L11.1379 36.7768" stroke="#B00000"/>
<path opacity="0.788235" d="M10.6665 36.8945L10.5486 37.1303" stroke="#B00000"/>
<path opacity="0.788235" d="M15.2637 37.0117L15.3815 37.2475" stroke="#B00000"/>
<path opacity="0.788235" d="M10.0771 37.248L9.95923 37.4838" stroke="#B00000"/>
<path opacity="0.788235" d="M9.72335 37.4844L9.60547 37.7201" stroke="#B00000"/>
<path opacity="0.788235" d="M9.25191 37.8379L9.13403 38.0736" stroke="#B00000"/>
<path opacity="0.788235" d="M8.89835 38.0742L8.6626 38.4278" stroke="#B00000"/>
<path opacity="0.788235" d="M15.9709 38.3086L16.0888 38.5443" stroke="#B00000"/>
<path opacity="0.788235" d="M8.30895 38.5449L7.95532 39.0164" stroke="#B00000"/>
<path opacity="0.788235" d="M16.3245 38.8984L16.4423 39.1342" stroke="#B00000"/>
<path opacity="0.788235" d="M52.3947 39.0156L52.2769 39.2514" stroke="#B00000"/>
<path opacity="0.788235" d="M7.48366 39.252L6.18701 40.6665" stroke="#B00000"/>
<path opacity="0.788235" d="M52.0412 39.6055L51.9233 39.8412" stroke="#B00000"/>
<path opacity="0.788235" d="M16.7961 39.7227L16.914 39.9584" stroke="#B00000"/>
<path opacity="0.788235" d="M56.049 39.7227L55.9312 39.9584" stroke="#B00000"/>
<path opacity="0.788235" d="M12.1989 40.0781L12.0811 40.3139" stroke="#B00000"/>
<path opacity="0.788235" d="M51.6877 40.1953L51.5698 40.4311" stroke="#B00000"/>
<path opacity="0.788235" d="M11.8452 40.3125L11.7273 40.5483" stroke="#B00000"/>
<path opacity="0.788235" d="M13.1418 40.4316L13.2597 40.6674" stroke="#B00000"/>
<path opacity="0.788235" d="M11.4917 40.5488L11.3738 40.7846" stroke="#B00000"/>
<path opacity="0.788235" d="M55.5776 40.5488L55.4597 40.7846" stroke="#B00000"/>
<path opacity="0.788235" d="M11.1379 40.7852L10.9021 41.1388" stroke="#B00000"/>
<path opacity="0.788235" d="M51.3339 40.7852L51.2161 41.0209" stroke="#B00000"/>
<path opacity="0.788235" d="M5.95133 40.9023L5.71558 41.256" stroke="#B00000"/>
<path opacity="0.788235" d="M13.4956 41.0195L13.6135 41.2553" stroke="#B00000"/>
<path opacity="0.788235" d="M55.2238 41.1387L55.106 41.3744" stroke="#B00000"/>
<path opacity="0.788235" d="M10.5485 41.2559L10.3127 41.6095" stroke="#B00000"/>
<path opacity="0.788235" d="M17.739 41.2559L17.8569 41.4916" stroke="#B00000"/>
<path opacity="0.788235" d="M5.47994 41.4922L5.36206 41.7279" stroke="#B00000"/>
<path opacity="0.788235" d="M13.8491 41.6094L13.967 41.8451" stroke="#B00000"/>
<path opacity="0.788235" d="M50.7446 41.7266L50.6267 41.9623" stroke="#B00000"/>
<path opacity="0.788235" d="M54.8703 41.7266L54.7524 41.9623" stroke="#B00000"/>
<path opacity="0.788235" d="M5.2441 41.8457L5.12622 42.0815" stroke="#B00000"/>
<path opacity="0.788235" d="M9.72333 41.9629L8.89819 42.9059" stroke="#B00000"/>
<path opacity="0.788235" d="M50.5087 42.082L50.3909 42.3178" stroke="#B00000"/>
<path opacity="0.788235" d="M14.2026 42.1992L14.3205 42.435" stroke="#B00000"/>
<path opacity="0.788235" d="M18.3284 42.1992L18.4462 42.435" stroke="#B00000"/>
<path opacity="0.788235" d="M54.5166 42.3164L54.3987 42.5522" stroke="#B00000"/>
<path opacity="0.788235" d="M4.89058 42.4355L4.77271 42.6713" stroke="#B00000"/>
<path opacity="0.788235" d="M18.5642 42.5527L18.6821 42.7885" stroke="#B00000"/>
<path opacity="0.788235" d="M14.5564 42.7891L14.6743 43.0248" stroke="#B00000"/>
<path opacity="0.788235" d="M18.8 42.9062L18.9179 43.142" stroke="#B00000"/>
<path opacity="0.788235" d="M54.163 42.9062L54.0452 43.142" stroke="#B00000"/>
<path opacity="0.788235" d="M49.9194 43.0234L49.8015 43.2592" stroke="#B00000"/>
<path opacity="0.788235" d="M8.66251 43.1426L8.42676 43.4962" stroke="#B00000"/>
<path opacity="0.788235" d="M53.9272 43.2598L53.8093 43.4955" stroke="#B00000"/>
<path opacity="0.788235" d="M14.91 43.377L14.9689 43.5538L14.7332 43.6716L14.91 43.377Z" fill="#B00000" stroke="#B00000"/>
<path opacity="0.788235" d="M8.30879 43.6133L8.19092 43.849" stroke="#B00000"/>
<path opacity="0.788235" d="M14.6743 43.8496L14.5564 44.0854" stroke="#B00000"/>
<path opacity="0.788235" d="M8.0732 43.9668L7.95532 44.2025" stroke="#B00000"/>
<path opacity="0.788235" d="M49.0942 44.2031L48.9763 44.4389" stroke="#B00000"/>
<path opacity="0.788235" d="M53.3378 44.2031L53.22 44.4389" stroke="#B00000"/>
<path opacity="0.788235" d="M14.3205 44.3203L14.2026 44.5561" stroke="#B00000"/>
<path opacity="0.788235" d="M19.7429 44.3203L19.8608 44.5561" stroke="#B00000"/>
<path opacity="0.788235" d="M48.8586 44.5566L48.7407 44.7924" stroke="#B00000"/>
<path opacity="0.788235" d="M53.102 44.5566L52.9841 44.7924" stroke="#B00000"/>
<path opacity="0.788235" d="M19.9788 44.6738L20.0966 44.9096" stroke="#B00000"/>
<path opacity="0.788235" d="M13.967 44.793L13.7312 45.1466" stroke="#B00000"/>
<path opacity="0.788235" d="M48.6228 44.9102L48.5049 45.1459" stroke="#B00000"/>
<path opacity="0.788235" d="M52.8664 44.9102L52.7485 45.1459" stroke="#B00000"/>
<path opacity="0.788235" d="M20.2144 45.0273L20.3322 45.2631" stroke="#B00000"/>
<path opacity="0.788235" d="M52.6306 45.2637L52.5127 45.4994" stroke="#B00000"/>
<path opacity="0.788235" d="M48.2692 45.3809L48.1514 45.6166" stroke="#B00000"/>
<path opacity="0.788235" d="M20.5681 45.5L20.686 45.7358" stroke="#B00000"/>
<path opacity="0.788235" d="M52.3947 45.6172L52.2769 45.8529" stroke="#B00000"/>
<path opacity="0.788235" d="M20.804 45.8535L20.9218 46.0893" stroke="#B00000"/>
<path opacity="0.788235" d="M47.9155 45.8535L47.7976 46.0893" stroke="#B00000"/>
<path opacity="0.788235" d="M52.1591 45.9707L52.0413 46.2065" stroke="#B00000"/>
<path opacity="0.788235" d="M47.6798 46.207L47.4441 46.5607" stroke="#B00000"/>
<path opacity="0.788235" d="M12.4345 46.3242L12.1987 46.6778" stroke="#B00000"/>
<path opacity="0.788235" d="M21.1575 46.3242L21.2753 46.56" stroke="#B00000"/>
<path opacity="0.788235" d="M51.9233 46.3242L51.8054 46.56" stroke="#B00000"/>
<path opacity="0.788235" d="M16.914 46.6777L16.7961 46.9135" stroke="#B00000"/>
<path opacity="0.788235" d="M11.8452 46.7969L11.7273 47.0326" stroke="#B00000"/>
<path opacity="0.788235" d="M17.1497 46.7969L17.2675 47.0326" stroke="#B00000"/>
<path opacity="0.788235" d="M21.5112 46.7969L21.6291 47.0326" stroke="#B00000"/>
<path opacity="0.788235" d="M47.2082 46.7969L47.0903 47.0326" stroke="#B00000"/>
<path opacity="0.788235" d="M51.5698 46.7969L51.4519 47.0326" stroke="#B00000"/>
<path opacity="0.788235" d="M3.12242 47.0312L3.18135 47.3259H3.06348L3.12242 47.0312Z" fill="#B00000" stroke="#B00000"/>
<path opacity="0.788235" d="M16.5602 47.1504L16.2065 47.6219" stroke="#B00000"/>
<path opacity="0.788235" d="M51.3339 47.1504L51.2161 47.3861" stroke="#B00000"/>
<path opacity="0.788235" d="M11.1379 47.2676L11.02 47.5033" stroke="#B00000"/>
<path opacity="0.788235" d="M17.5034 47.2676L17.6213 47.5033" stroke="#B00000"/>
<path opacity="0.788235" d="M21.8647 47.2676L22.1005 47.6212" stroke="#B00000"/>
<path opacity="0.788235" d="M46.8546 47.2676L46.6189 47.6212" stroke="#B00000"/>
<path opacity="0.788235" d="M6.65855 47.3848L6.71749 47.6795H6.59961L6.65855 47.3848Z" fill="#B00000" stroke="#B00000"/>
<path opacity="0.788235" d="M3.0045 47.6211L3.06343 47.9158H2.94556L3.0045 47.6211Z" fill="#B00000" stroke="#B00000"/>
<path opacity="0.788235" d="M17.739 47.6211L17.8569 47.8568" stroke="#B00000"/>
<path opacity="0.788235" d="M50.9804 47.6211L50.8625 47.8568" stroke="#B00000"/>
<path opacity="0.788235" d="M22.3362 47.8574L22.5719 48.2111" stroke="#B00000"/>
<path opacity="0.788235" d="M46.3832 47.8574L46.1475 48.2111" stroke="#B00000"/>
<path opacity="0.788235" d="M18.0926 48.0938L18.1516 49.0957H18.0337L18.0926 48.0938Z" fill="#B00000" stroke="#B00000"/>
<path opacity="0.788235" d="M50.6267 48.0938L50.5088 48.3295" stroke="#B00000"/>
<path opacity="0.788235" d="M2.88658 48.3281L2.94551 48.7407H2.82764L2.88658 48.3281Z" fill="#B00000" stroke="#B00000"/>
<path opacity="0.788235" d="M15.4994 48.3281L15.2637 48.6818" stroke="#B00000"/>
<path opacity="0.788235" d="M22.8079 48.4473L23.0436 48.8009" stroke="#B00000"/>
<path opacity="0.788235" d="M50.391 48.4473L50.1553 48.8009" stroke="#B00000"/>
<path opacity="0.788235" d="M6.42295 48.5645L6.48189 48.8591H6.36401L6.42295 48.5645Z" fill="#B00000" stroke="#B00000"/>
<path opacity="0.788235" d="M45.7938 48.5645L45.4402 49.036" stroke="#B00000"/>
<path opacity="0.788235" d="M7.36597 48.6816L7.66066 48.7406L7.36597 48.7995V48.6816Z" fill="#B00000" stroke="#B00000"/>
<path opacity="0.788235" d="M6.77661 48.8008L7.0713 48.8597L6.77661 48.9187V48.8008Z" fill="#B00000" stroke="#B00000"/>
<path opacity="0.788235" d="M14.6742 49.0352L14.3206 49.5067" stroke="#B00000"/>
<path opacity="0.788235" d="M49.9194 49.0352L49.8015 49.2709" stroke="#B00000"/>
<path opacity="0.788235" d="M23.3972 49.1543L23.8687 49.7437" stroke="#B00000"/>
<path opacity="0.788235" d="M2.76866 49.2715L2.82759 50.1556H2.70972L2.76866 49.2715Z" fill="#B00000" stroke="#B00000"/>
<path opacity="0.788235" d="M44.9686 49.5078L42.6111 51.9832" stroke="#B00000"/>
<path opacity="0.788235" d="M49.5658 49.5078L49.3301 49.8614" stroke="#B00000"/>
<path opacity="0.788235" d="M13.967 49.625L13.8491 49.8608" stroke="#B00000"/>
<path opacity="0.788235" d="M17.9747 49.625L18.0336 49.9197H17.9158L17.9747 49.625Z" fill="#B00000" stroke="#B00000"/>
<path opacity="0.788235" d="M49.0944 50.0977L48.7407 50.5692" stroke="#B00000"/>
<path opacity="0.788235" d="M24.458 50.332L25.6368 51.6287" stroke="#B00000"/>
<path opacity="0.788235" d="M48.3871 50.9219L48.0334 51.3934" stroke="#B00000"/>
<path opacity="0.788235" d="M2.76866 51.0391L2.82759 51.3338H2.70972L2.76866 51.0391Z" fill="#B00000" stroke="#B00000"/>
<path opacity="0.788235" d="M3.00439 51.7461L3.12227 51.9818" stroke="#B00000"/>
<path opacity="0.788235" d="M47.6797 51.7461L46.501 53.0427" stroke="#B00000"/>
<path opacity="0.788235" d="M21.1575 51.8652L21.629 52.4546C21.4169 52.0303 21.2007 51.8927 20.9807 52.0421L21.1575 51.8652Z" fill="#B00000" stroke="#B00000"/>
<path opacity="0.788235" d="M3.35815 52.1016L3.47603 52.3373" stroke="#B00000"/>
<path opacity="0.788235" d="M26.344 52.1016L26.6976 52.5731" stroke="#B00000"/>
<path opacity="0.788235" d="M42.1395 52.2188L41.7859 52.6903" stroke="#B00000"/>
<path opacity="0.788235" d="M6.77661 52.3359L7.18918 52.3949L6.77661 52.4538V52.3359Z" fill="#B00000" stroke="#B00000"/>
<path opacity="0.788235" d="M5.8335 52.4551L6.36394 52.514L5.8335 52.573V52.4551Z" fill="#B00000" stroke="#B00000"/>
<path opacity="0.788235" d="M27.1692 52.8086L27.2871 53.0443" stroke="#B00000"/>
<path opacity="0.788235" d="M41.4323 52.8086L41.1965 53.1622" stroke="#B00000"/>
<path opacity="0.788235" d="M27.6406 53.1621L27.8764 53.5157" stroke="#B00000"/>
<path opacity="0.788235" d="M40.9608 53.1621L40.7251 53.5157" stroke="#B00000"/>
<path opacity="0.788235" d="M14.5564 53.2793L14.6743 53.515" stroke="#B00000"/>
<path opacity="0.788235" d="M16.6782 53.2793L16.5603 53.515" stroke="#B00000"/>
<path opacity="0.788235" d="M46.0294 53.3965L44.9685 54.5753" stroke="#B00000"/>
<path opacity="0.788235" d="M28.1123 53.5156L28.2302 53.7514" stroke="#B00000"/>
<path opacity="0.788235" d="M40.4892 53.5156L40.3713 53.7514" stroke="#B00000"/>
<path opacity="0.788235" d="M28.4658 53.75L28.5837 53.9858" stroke="#B00000"/>
<path opacity="0.788235" d="M40.1357 53.75L40.0178 53.9858" stroke="#B00000"/>
<path opacity="0.788235" d="M14.9099 53.8691L15.0278 54.1049" stroke="#B00000"/>
<path opacity="0.788235" d="M28.8196 53.9863L28.9375 54.2221" stroke="#B00000"/>
<path opacity="0.788235" d="M39.7819 53.9863L39.6641 54.2221" stroke="#B00000"/>
<path opacity="0.788235" d="M15.1458 54.2227L15.2636 54.4584" stroke="#B00000"/>
<path opacity="0.788235" d="M16.0888 54.2227L15.9709 54.4584" stroke="#B00000"/>
<path opacity="0.788235" d="M23.6328 54.3398L24.1043 54.9292" stroke="#B00000"/>
<path opacity="0.788235" d="M29.4089 54.3398L29.5268 54.5756" stroke="#B00000"/>
<path opacity="0.788235" d="M15.3816 54.5762C15.5152 54.8198 15.6527 54.8787 15.7942 54.753L15.6173 54.9298L15.3816 54.5762Z" fill="#B00000" stroke="#B00000"/>
<path opacity="0.788235" d="M38.7211 54.5762L38.6033 54.8119" stroke="#B00000"/>
<path opacity="0.788235" d="M44.3793 54.9297L44.1436 55.2833" stroke="#B00000"/>
<path opacity="0.788235" d="M19.6252 55.166L19.5073 55.4018" stroke="#B00000"/>
<path opacity="0.788235" d="M24.5759 55.166L24.8117 55.5196" stroke="#B00000"/>
<path opacity="0.788235" d="M43.6721 55.5195L43.5542 55.7553" stroke="#B00000"/>
<path opacity="0.788235" d="M35.7742 55.6367L36.0689 55.6957L35.7742 55.7546V55.6367Z" fill="#B00000" stroke="#B00000"/>
<path opacity="0.788235" d="M11.9631 55.7539L12.081 55.9897" stroke="#B00000"/>
<path opacity="0.788235" d="M19.2714 55.7539L19.1536 55.9897" stroke="#B00000"/>
<path opacity="0.788235" d="M25.2832 55.7539L25.4011 55.9897" stroke="#B00000"/>
<path opacity="0.788235" d="M33.1809 55.7539L33.7114 55.8128L33.1809 55.8718V55.7539Z" fill="#B00000" stroke="#B00000"/>
<path opacity="0.788235" d="M34.949 55.7539L35.3615 55.8128L34.949 55.8718V55.7539Z" fill="#B00000" stroke="#B00000"/>
<path opacity="0.788235" d="M43.2004 55.873L42.9646 56.2267" stroke="#B00000"/>
<path opacity="0.788235" d="M19.0356 56.1094L18.9177 56.3451" stroke="#B00000"/>
<path opacity="0.788235" d="M25.7546 56.1094L25.8725 56.3451" stroke="#B00000"/>
<path opacity="0.788235" d="M42.729 56.2266L42.6111 56.4623" stroke="#B00000"/>
<path opacity="0.788235" d="M12.4346 56.4629L12.5524 56.6986" stroke="#B00000"/>
<path opacity="0.788235" d="M18.8 56.4629L18.6821 56.6986" stroke="#B00000"/>
<path opacity="0.788235" d="M12.6704 56.8164L12.9062 57.17" stroke="#B00000"/>
<path opacity="0.788235" d="M18.4462 56.9336L18.3284 57.1693" stroke="#B00000"/>
<path opacity="0.788235" d="M41.6682 56.9336L41.5503 57.1693" stroke="#B00000"/>
<path opacity="0.788235" d="M27.1692 57.0508L27.2871 57.2865" stroke="#B00000"/>
<path opacity="0.788235" d="M13.0239 57.2871L13.2597 57.6407" stroke="#B00000"/>
<path opacity="0.788235" d="M18.0927 57.4043L17.8569 57.7579" stroke="#B00000"/>
<path opacity="0.788235" d="M13.4956 57.877L13.8492 58.3485" stroke="#B00000"/>
<path opacity="0.788235" d="M17.6211 57.9941L17.0317 58.7014" stroke="#B00000"/>
<path opacity="0.788235" d="M14.5564 58.9375L14.6743 59.1733" stroke="#B00000"/>
<path opacity="0.788235" d="M16.6782 58.9375L16.5603 59.1733" stroke="#B00000"/>
<path opacity="0.788235" d="M32.3557 59.1738L32.6504 59.2328L32.3557 59.2917V59.1738Z" fill="#B00000" stroke="#B00000"/>
<path opacity="0.788235" d="M36.01 59.1738L36.3047 59.2328L36.01 59.2917V59.1738Z" fill="#B00000" stroke="#B00000"/>
<path opacity="0.788235" d="M15.2637 59.291L15.5584 59.35L15.2637 59.4089V59.291Z" fill="#B00000" stroke="#B00000"/>
<path opacity="0.788235" d="M15.7351 59.291L16.0298 59.35L15.7351 59.4089V59.291Z" fill="#B00000" stroke="#B00000"/>
<path opacity="0.788235" d="M33.1809 59.291L34.1829 59.35L33.1809 59.4089V59.291Z" fill="#B00000" stroke="#B00000"/>
<path opacity="0.788235" d="M34.5955 59.291L35.4795 59.35L34.5955 59.4089V59.291Z" fill="#B00000" stroke="#B00000"/>
<path opacity="0.996078" d="M34.2417 2.5918L34.6543 2.65074L34.2417 2.70967V2.5918Z" fill="#B00000" stroke="#B00000"/>
<path opacity="0.996078" d="M19.6252 7.42578L19.5073 7.66153" stroke="#B00000"/>
<path opacity="0.996078" d="M19.1535 7.7793L19.0356 8.01505" stroke="#B00000"/>
<path opacity="0.996078" d="M49.9194 8.01562L50.0373 8.25138" stroke="#B00000"/>
<path opacity="0.996078" d="M18.4462 8.36914L18.3284 8.60489" stroke="#B00000"/>
<path opacity="0.996078" d="M50.6267 8.60352L50.8625 8.95715" stroke="#B00000"/>
<path opacity="0.996078" d="M17.6211 9.07617L17.0317 9.78343" stroke="#B00000"/>
<path opacity="0.996078" d="M16.6782 10.0195L15.9709 10.8447" stroke="#B00000"/>
<path opacity="0.996078" d="M47.2083 10.2539L47.3261 10.4897" stroke="#B00000"/>
<path opacity="0.996078" d="M47.7976 10.7266L47.9155 10.9623" stroke="#B00000"/>
<path opacity="0.996078" d="M20.686 10.9609L20.5681 11.1967" stroke="#B00000"/>
<path opacity="0.996078" d="M52.9841 10.9609L53.2199 11.3146" stroke="#B00000"/>
<path opacity="0.996078" d="M48.5049 11.3145L48.7406 11.6681" stroke="#B00000"/>
<path opacity="0.996078" d="M15.3815 11.4336L15.2637 11.6693" stroke="#B00000"/>
<path opacity="0.996078" d="M19.8609 11.668L18.6821 12.9646" stroke="#B00000"/>
<path opacity="0.996078" d="M53.6914 11.7871L53.8093 12.0229" stroke="#B00000"/>
<path opacity="0.996078" d="M14.9101 12.0234L14.7922 12.2592" stroke="#B00000"/>
<path opacity="0.996078" d="M50.2729 13.084L50.5087 13.4376" stroke="#B00000"/>
<path opacity="0.996078" d="M18.0927 13.5547L17.8569 13.9083" stroke="#B00000"/>
<path opacity="0.996078" d="M50.9802 13.9082L51.0981 14.144" stroke="#B00000"/>
<path opacity="0.996078" d="M17.5034 14.2617L17.3855 14.4975" stroke="#B00000"/>
<path opacity="0.996078" d="M18.9178 20.1562L18.5642 20.6278" stroke="#B00000"/>
<path opacity="0.996078" d="M49.9194 20.3926L50.6267 21.2177" stroke="#B00000"/>
<path opacity="0.996078" d="M18.0927 20.9805L17.8569 21.3341" stroke="#B00000"/>
<path opacity="0.996078" d="M50.9802 21.5703L51.0981 21.8061" stroke="#B00000"/>
<path opacity="0.996078" d="M17.5034 21.6875L17.3855 21.9233" stroke="#B00000"/>
<path opacity="0.996078" d="M21.1575 22.75L20.4502 23.5751" stroke="#B00000"/>
<path opacity="0.996078" d="M47.6797 22.9844L48.0333 23.4559" stroke="#B00000"/>
<path opacity="0.996078" d="M23.0436 24.4004L22.8079 24.754" stroke="#B00000"/>
<path opacity="0.996078" d="M45.5581 24.4004L45.7939 24.754" stroke="#B00000"/>
<path opacity="0.996078" d="M13.024 26.168L13.083 26.4627H12.9651L13.024 26.168Z" fill="#B00000" stroke="#B00000"/>
<path opacity="0.996078" d="M38.4855 26.168L38.1318 26.6395" stroke="#B00000"/>
<path opacity="0.996078" d="M30.2339 26.2852L30.4696 26.6388" stroke="#B00000"/>
<path opacity="0.996078" d="M59.2318 26.5215L59.2907 26.9341H59.1729L59.2318 26.5215Z" fill="#B00000" stroke="#B00000"/>
<path opacity="0.996078" d="M30.8233 27.4648L30.8823 27.7595H30.7644L30.8233 27.4648Z" fill="#B00000" stroke="#B00000"/>
<path opacity="0.996078" d="M59.2318 27.8184L59.2907 28.3488H59.1729L59.2318 27.8184Z" fill="#B00000" stroke="#B00000"/>
<path opacity="0.996078" d="M30.4696 28.6426L30.2339 28.9962" stroke="#B00000"/>
<path opacity="0.996078" d="M38.1318 28.6426L38.3676 28.9962" stroke="#B00000"/>
<path opacity="0.996078" d="M43.7898 28.9961L43.6719 29.2318" stroke="#B00000"/>
<path opacity="0.996078" d="M20.4502 30.8828L20.9217 31.4722" stroke="#B00000"/>
<path opacity="0.996078" d="M47.9154 31.1191L47.6797 31.4728" stroke="#B00000"/>
<path opacity="0.996078" d="M47.2082 31.707L47.0903 31.9428" stroke="#B00000"/>
<path opacity="0.996078" d="M17.3855 32.5332L17.5034 32.769" stroke="#B00000"/>
<path opacity="0.996078" d="M17.8569 33.123L18.7999 34.1839" stroke="#B00000"/>
<path opacity="0.996078" d="M50.6267 33.2402L49.9194 34.0654" stroke="#B00000"/>
<path opacity="0.996078" d="M19.2715 34.4199L19.3894 34.6557" stroke="#B00000"/>
<path opacity="0.996078" d="M24.3401 36.3047L24.6348 36.3636L24.3401 36.4226V36.3047Z" fill="#B00000" stroke="#B00000"/>
<path opacity="0.996078" d="M43.3184 36.3047L43.6131 36.3636L43.3184 36.4226V36.3047Z" fill="#B00000" stroke="#B00000"/>
<path opacity="0.996078" d="M43.9077 36.3047L44.2024 36.3636L43.9077 36.4226V36.3047Z" fill="#B00000" stroke="#B00000"/>
<path opacity="0.996078" d="M8.54463 38.4277L8.42676 38.6635" stroke="#B00000"/>
<path opacity="0.996078" d="M7.83732 39.0156L7.60156 39.3693" stroke="#B00000"/>
<path opacity="0.996078" d="M6.18721 40.666L6.06934 40.9018" stroke="#B00000"/>
<path opacity="0.996078" d="M10.7844 41.0195L10.6665 41.2553" stroke="#B00000"/>
<path opacity="0.996078" d="M5.71553 41.2559L5.59766 41.4916" stroke="#B00000"/>
<path opacity="0.996078" d="M10.0771 41.6094L9.84131 41.963" stroke="#B00000"/>
<path opacity="0.996078" d="M8.78047 42.9062L8.6626 43.142" stroke="#B00000"/>
<path opacity="0.996078" d="M49.8015 43.2598L49.6836 43.4955" stroke="#B00000"/>
<path opacity="0.996078" d="M14.5564 44.0859L14.4385 44.3217" stroke="#B00000"/>
<path opacity="0.996078" d="M14.2028 44.5566L14.085 44.7924" stroke="#B00000"/>
<path opacity="0.996078" d="M13.7313 45.1465L12.5525 46.4431" stroke="#B00000"/>
<path opacity="0.996078" d="M20.3323 45.2637L20.4502 45.4994" stroke="#B00000"/>
<path opacity="0.996078" d="M48.1513 45.6172L48.0334 45.8529" stroke="#B00000"/>
<path opacity="0.996078" d="M17.0317 46.5605L17.1496 46.7963" stroke="#B00000"/>
<path opacity="0.996078" d="M21.2754 46.5605L21.3933 46.7963" stroke="#B00000"/>
<path opacity="0.996078" d="M47.444 46.5605L47.3262 46.7963" stroke="#B00000"/>
<path opacity="0.996078" d="M12.081 46.6777L11.9631 46.9135" stroke="#B00000"/>
<path opacity="0.996078" d="M16.6782 46.9141L16.5603 47.1498" stroke="#B00000"/>
<path opacity="0.996078" d="M47.0903 47.0312L46.9724 47.267" stroke="#B00000"/>
<path opacity="0.996078" d="M16.0889 47.6211L14.7922 49.0356" stroke="#B00000"/>
<path opacity="0.996078" d="M22.1006 47.6211L22.2185 47.8568" stroke="#B00000"/>
<path opacity="0.996078" d="M46.6189 47.6211L46.501 47.8568" stroke="#B00000"/>
<path opacity="0.996078" d="M17.9749 47.8574L18.0927 48.0932" stroke="#B00000"/>
<path opacity="0.996078" d="M22.572 48.2109L22.6899 48.4467" stroke="#B00000"/>
<path opacity="0.996078" d="M46.0295 48.3281L45.9116 48.5639" stroke="#B00000"/>
<path opacity="0.996078" d="M23.1614 48.918L23.2793 49.1537" stroke="#B00000"/>
<path opacity="0.996078" d="M45.4401 49.0352L45.0864 49.5067" stroke="#B00000"/>
<path opacity="0.996078" d="M49.6838 49.2715L49.5659 49.5072" stroke="#B00000"/>
<path opacity="0.996078" d="M14.2028 49.3887L14.085 49.6244" stroke="#B00000"/>
<path opacity="0.996078" d="M23.8687 49.7422L24.3402 50.3316" stroke="#B00000"/>
<path opacity="0.996078" d="M49.2121 49.8613L49.0942 50.0971" stroke="#B00000"/>
<path opacity="0.996078" d="M48.6228 50.5684L48.5049 50.8041" stroke="#B00000"/>
<path opacity="0.996078" d="M43.9076 50.6855L43.6719 51.0392" stroke="#B00000"/>
<path opacity="0.996078" d="M47.9156 51.3926L47.562 51.8641" stroke="#B00000"/>
<path opacity="0.996078" d="M25.7546 51.6289L26.2261 52.2183" stroke="#B00000"/>
<path opacity="0.996078" d="M42.4931 51.9824L42.2573 52.3361" stroke="#B00000"/>
<path opacity="0.996078" d="M21.7468 52.4551L23.515 54.3411" stroke="#B00000"/>
<path opacity="0.996078" d="M26.8157 52.5723L27.0514 52.9259" stroke="#B00000"/>
<path opacity="0.996078" d="M41.6682 52.6895L41.5503 52.9252" stroke="#B00000"/>
<path opacity="0.996078" d="M27.405 53.043L27.5229 53.2787" stroke="#B00000"/>
<path opacity="0.996078" d="M46.3832 53.043L46.1475 53.3966" stroke="#B00000"/>
<path opacity="0.996078" d="M44.7328 54.5762L44.4971 54.9298" stroke="#B00000"/>
<path opacity="0.996078" d="M24.3401 54.9297L24.458 55.1654" stroke="#B00000"/>
<path opacity="0.996078" d="M43.9077 55.2832L43.7898 55.519" stroke="#B00000"/>
<path opacity="0.996078" d="M25.0474 55.5195L25.1652 55.7553" stroke="#B00000"/>
<path opacity="0.996078" d="M25.519 55.873L25.6369 56.1088" stroke="#B00000"/>
<path opacity="0.996078" d="M12.3167 56.2266L12.4345 56.4623" stroke="#B00000"/>
<path opacity="0.996078" d="M25.9905 56.2266L26.1084 56.4623" stroke="#B00000"/>
<path opacity="0.996078" d="M42.4931 56.3438L42.3752 56.5795" stroke="#B00000"/>
<path opacity="0.996078" d="M18.2106 57.1699L18.0928 57.4057" stroke="#B00000"/>
<path opacity="0.996078" d="M13.3777 57.6406L13.4956 57.8764" stroke="#B00000"/>
<path opacity="0.996078" d="M17.739 57.7578L17.6211 57.9936" stroke="#B00000"/>
<path opacity="0.996078" d="M13.967 58.3477L14.4385 58.937" stroke="#B00000"/>
<path opacity="0.996078" d="M16.914 58.7012L16.7961 58.9369" stroke="#B00000"/>
<path opacity="0.996078" d="M34.2417 59.291L34.5364 59.35L34.2417 59.4089V59.291Z" fill="#B00000" stroke="#B00000"/>
<path d="M32.12 2.71094H36.7172L36.8351 2.82881L38.4853 2.94669C40.3164 3.27675 42.0059 3.74825 43.554 4.36121C47.3104 5.90933 50.4341 8.09005 52.9253 10.9034C54.827 13.0094 56.3594 15.4849 57.5224 18.3296C58.1354 19.8777 58.6069 21.5673 58.937 23.3983L59.0548 25.0486L59.1727 25.1665L59.2906 27.7598L59.1727 27.8776L59.0548 30.8246L58.4655 33.7715C57.9547 35.6575 57.2867 37.3864 56.4616 38.9581C54.8034 41.9757 52.996 44.844 51.0392 47.5631C49.2082 50.1328 47.1454 52.4707 44.8507 54.5767C43.1454 56.172 41.1415 57.4687 38.839 58.4667L35.7742 59.2918H32.8272C30.564 58.8832 28.6387 58.1366 27.0513 57.0522L24.2222 54.9304L21.1574 51.8656H20.9806C20.0926 54.8046 18.6192 57.2015 16.5602 59.0561C16.2695 59.3154 15.798 59.394 15.1457 59.2918C14.4542 59.0011 13.9237 58.5492 13.5544 57.9362L11.4326 54.8714L10.4896 52.8675L10.136 51.6298L7.36585 52.3371L5.5977 52.455L5.47982 52.5728H4.18318C3.67238 52.455 3.2991 52.1996 3.06335 51.8066C2.82759 51.4923 2.70972 51.0601 2.70972 50.51L2.82759 50.3921V48.9776L3.18122 46.9737L4.12424 44.0268C4.9258 42.1565 6.04563 40.6044 7.48373 39.3706C8.63106 38.3176 9.90806 37.3942 11.3147 36.6005L10.6075 34.7145L9.9002 31.7676L9.78233 30.2352L9.66445 30.1173V29.0564L9.54657 28.9385V25.9916L9.66445 25.8737V24.695L10.136 21.9838L11.5505 17.6224C12.8943 14.5654 14.6821 11.9525 16.9139 9.78355C18.9571 7.77964 21.3539 6.12937 24.1044 4.83272L28.1122 3.4182L32.12 2.71094ZM32.4147 6.12937L28.6426 6.83663L25.9315 7.77964C23.5739 8.80124 21.57 10.0979 19.9197 11.6696C17.8765 13.477 16.2263 15.7167 14.9689 18.3886L13.6723 21.9249L13.2008 24.1645L13.0829 26.1684L12.965 26.2863V28.7617L13.0829 28.8796V30.0584L13.2008 30.1762L13.3186 31.5908C13.633 33.241 14.1045 34.7734 14.7332 36.188C17.2479 41.2174 20.2734 45.7753 23.8097 49.8617C25.2242 51.4334 26.8745 52.8479 28.7605 54.1052C29.9393 54.9697 31.3931 55.559 33.1219 55.8734H35.4795L37.9549 55.1661C40.1553 54.1445 42.0806 52.7693 43.7309 51.0404C45.3811 49.3902 46.8742 47.622 48.2102 45.736C49.939 43.2999 51.55 40.7852 53.0431 38.1919L54.8113 34.184L55.4007 31.9444L55.6364 29.7047L55.7543 29.5869V25.4612L54.9292 21.3355C53.9861 18.1921 52.5323 15.5595 50.5677 13.4377C48.3673 10.7659 45.5383 8.76195 42.0806 7.42601L40.3124 6.83663L37.4834 6.24724H36.5404L36.4225 6.12937H32.4147ZM12.8471 39.7243L10.136 41.6103C8.01417 43.2606 6.75682 45.6967 6.3639 48.9187C8.95719 48.6829 11.0397 47.8578 12.6114 46.4432C13.5544 45.6574 14.3402 44.7144 14.9689 43.6142V43.3784L12.8471 39.7243ZM17.0907 46.5611L16.5013 47.2684C15.5583 48.3686 14.4974 49.3509 13.3186 50.2153V50.6868L13.908 52.3371C14.3795 53.2801 14.9689 54.1445 15.6762 54.9304C16.9335 53.5159 17.7587 51.6691 18.1516 49.3902V48.0935L17.0907 46.5611Z" fill="#B00000" stroke="#B00000"/>
<path d="M31.8843 16.1484H36.7173L36.8352 16.2663H37.8961L38.0139 16.3842L40.2536 16.6199L42.8469 17.2093L46.3832 18.3881L48.3871 19.3311C49.393 19.9048 50.2378 20.6317 50.9214 21.5118C51.723 22.4784 52.3124 23.6572 52.6896 25.0481L52.8075 26.3448L52.9254 26.4627V28.1129L52.5717 29.8811L51.7466 31.7671C51.1493 32.8202 50.3831 33.7042 49.448 34.4193C48.6464 35.0716 47.7034 35.5824 46.6189 35.9517L45.2044 36.3054H43.9078L43.672 36.4233L43.5541 36.3054H42.3754L40.6072 35.8339L38.6033 35.4802H37.7782L37.6603 35.3624H36.4815L36.3637 35.2445H32.238L32.1201 35.3624H30.9413L30.8234 35.4802L28.5838 35.716L26.2262 36.3054L24.6938 36.4233L24.576 36.3054H23.3972L21.9827 35.9517L19.9788 35.0087L17.5623 32.828C16.8236 31.9164 16.2735 30.8162 15.912 29.5275L15.6763 28.2308V26.2269L16.2657 23.8694C16.8 22.5963 17.5269 21.5158 18.4464 20.6278L19.9788 19.449L22.8078 18.1523L27.6408 16.7378L30.4698 16.3842L30.5877 16.2663H31.7665L31.8843 16.1484ZM32.0611 19.5669L31.9433 19.6847H30.8824L30.7645 19.8026L29.2321 19.9205L25.8137 20.7456L22.631 21.9244L21.2165 22.7495C20.1163 23.614 19.409 24.8713 19.0947 26.5216V28.054L19.3305 29.1149L20.3913 31.0009C21.1772 31.9439 22.3167 32.5726 23.8098 32.8869H25.9316L28.2891 32.2976L30.6466 32.0618L30.7645 31.9439H31.9433L32.0611 31.8261H36.6583L36.7762 31.9439H37.955L38.0729 32.0618L40.4304 32.2976L42.7879 32.8869C43.8095 33.0441 44.674 33.0048 45.3812 32.7691C46.3242 32.5333 47.1101 32.1011 47.7388 31.4724L48.9175 29.94L49.5069 27.9361V26.7574L49.2712 25.5786C48.9568 24.7142 48.5639 24.0069 48.0924 23.4568L46.3242 22.0423L43.9667 21.0993L41.1377 20.2741L37.8371 19.6847H36.7762L36.6583 19.5669H32.0611Z" fill="#B00000" stroke="#B00000"/>
<path d="M23.9866 24.0469L25.4011 24.4005L29.5268 25.9329L30.6466 26.817L30.7645 28.1136C30.6545 28.593 30.3991 28.927 29.9983 29.1156C29.7154 29.3435 29.2832 29.4221 28.7017 29.3513L28.2301 29.2335C27.8922 29.7993 27.2636 30.0743 26.3441 30.0586C25.6919 29.925 25.2007 29.6303 24.8707 29.1745C24.5406 28.8445 24.4227 28.3533 24.517 27.7011C23.6762 27.6146 23.0475 27.2806 22.631 26.6991C22.4031 26.4162 22.3245 25.984 22.3952 25.4025L23.2793 24.2826L23.9866 24.0469Z" fill="#B00000" stroke="#B00000"/>
<path d="M44.2614 24.0469C45.1101 24.0705 45.6799 24.3651 45.9706 24.931C46.1828 25.1903 46.2614 25.5832 46.2064 26.1097L45.4402 27.2295L44.0846 27.7011V28.4673L43.3184 29.5871L42.2575 30.0586H41.6681C41.0944 29.925 40.6622 29.65 40.3715 29.2335H39.9C39.7821 29.4299 39.507 29.4692 39.0748 29.3513L37.955 28.4673L37.7192 27.5242C37.8293 26.8877 38.1239 26.4358 38.6033 26.1687L44.2614 24.0469Z" fill="#B00000" stroke="#B00000"/>
</g>
<defs>
<clipPath id="clip0_27837_9696">
<rect width="60.3529" height="60.3529" fill="white" transform="translate(0.82373 0.824219)"/>
</clipPath>
</defs>
</svg>
