<svg width="204" height="268" viewBox="0 0 204 268" fill="none" xmlns="http://www.w3.org/2000/svg">
<path d="M44.7822 227.33L44.7822 172.193" stroke="black" stroke-width="3" stroke-linecap="round" stroke-linejoin="round"/>
<path d="M21.1514 146.807L21.1514 137.118" stroke="black" stroke-width="3" stroke-linecap="round" stroke-linejoin="round"/>
<path d="M21.1514 146.808L21.1514 210.699" stroke="black" stroke-width="3" stroke-linecap="round" stroke-linejoin="round"/>
<path d="M66.3535 133.361L66.3535 96.8955" stroke="black" stroke-width="3" stroke-linecap="round" stroke-linejoin="round"/>
<path d="M66.3535 133.38L66.3535 146.807L21.1517 146.807" stroke="black" stroke-width="3" stroke-linecap="round" stroke-linejoin="round"/>
<path d="M43.7522 124.912L43.7522 75.2865L89.6592 75.2866" stroke="black" stroke-width="3" stroke-linecap="round" stroke-linejoin="round"/>
<path d="M122.894 75.2871L89.6591 75.2871" stroke="black" stroke-width="3" stroke-linecap="round" stroke-linejoin="round"/>
<path d="M175.376 147.971L175.376 94.3019L143.018 94.3019" stroke="black" stroke-width="3" stroke-linecap="round" stroke-linejoin="round"/>
<path d="M89.6596 75.2874L89.6596 94.2832L143.018 94.2832" stroke="black" stroke-width="3" stroke-linecap="round" stroke-linejoin="round"/>
<path d="M175.376 147.971L202.283 147.971" stroke="black" stroke-width="3" stroke-linecap="round" stroke-linejoin="round"/>
<path d="M175.376 147.971L141.856 147.971" stroke="black" stroke-width="3" stroke-linecap="round" stroke-linejoin="round"/>
<path d="M89.6592 133.38L89.6592 175.701" stroke="black" stroke-width="3" stroke-linecap="round" stroke-linejoin="round"/>
<path d="M89.6596 133.361L89.6596 119.362L148.544 119.362" stroke="black" stroke-width="3" stroke-linecap="round" stroke-linejoin="round"/>
<path d="M72.1654 202.25L72.1654 175.702L89.6592 175.702" stroke="black" stroke-width="3" stroke-linecap="round" stroke-linejoin="round"/>
<path d="M152.051 175.701L115.615 175.701" stroke="black" stroke-width="3" stroke-linecap="round" stroke-linejoin="round"/>
<path d="M89.6594 175.701L115.614 175.701" stroke="black" stroke-width="3" stroke-linecap="round" stroke-linejoin="round"/>
<path d="M152.051 175.701L175.376 175.701" stroke="black" stroke-width="3" stroke-linecap="round" stroke-linejoin="round"/>
<path d="M115.614 175.701L115.614 139.808" stroke="black" stroke-width="3" stroke-linecap="round" stroke-linejoin="round"/>
<path d="M97.5296 202.25L126.114 202.25" stroke="black" stroke-width="3" stroke-linecap="round" stroke-linejoin="round"/>
<path d="M152.051 175.702L152.051 202.25L126.096 202.25" stroke="black" stroke-width="3" stroke-linecap="round" stroke-linejoin="round"/>
<path d="M126.114 202.251L126.114 227.35" stroke="black" stroke-width="3" stroke-linecap="round" stroke-linejoin="round"/>
<path d="M175.376 201.068L202.283 201.068" stroke="black" stroke-width="3" stroke-linecap="round" stroke-linejoin="round"/>
<path d="M168.954 72.9785L202.283 72.9785" stroke="black" stroke-width="3" stroke-linecap="round" stroke-linejoin="round"/>
<path d="M143.018 51.3887L179.739 51.3887" stroke="black" stroke-width="3" stroke-linecap="round" stroke-linejoin="round"/>
<path d="M120.855 51.3887L143.018 51.3887" stroke="black" stroke-width="3" stroke-linecap="round" stroke-linejoin="round"/>
<path d="M143.018 51.3901L143.018 94.2832" stroke="black" stroke-width="3" stroke-linecap="round" stroke-linejoin="round"/>
<path d="M21.1515 96.8965L21.1515 51.3905L81.7891 51.3905" stroke="black" stroke-width="3" stroke-linecap="round" stroke-linejoin="round"/>
<path d="M100.445 51.3887L81.7891 51.3887" stroke="black" stroke-width="3" stroke-linecap="round" stroke-linejoin="round"/>
<path d="M81.7891 51.3887L81.7891 26.862" stroke="black" stroke-width="3" stroke-linecap="round" stroke-linejoin="round"/>
<path d="M66.3532 133.361L89.6592 133.361" stroke="black" stroke-width="3" stroke-linecap="round" stroke-linejoin="round"/>
<path d="M202.283 147.972L202.283 201.068" stroke="black" stroke-width="3" stroke-linecap="round" stroke-linejoin="round"/>
<path d="M202.283 72.9983L202.283 147.971" stroke="black" stroke-width="3" stroke-linecap="round" stroke-linejoin="round"/>
<path d="M202.283 72.9785L202.283 26.8622L81.7894 26.8622" stroke="black" stroke-width="3" stroke-linecap="round" stroke-linejoin="round"/>
<path d="M56.4631 26.8633L81.7891 26.8633" stroke="black" stroke-width="3" stroke-linecap="round" stroke-linejoin="round"/>
<path d="M1.99999 119.001L2 27.001L27 27.001" stroke="black" stroke-width="3" stroke-linecap="round" stroke-linejoin="round"/>
<path d="M126.096 227.35L2.00024 227.35L2.00025 119.039" stroke="black" stroke-width="3" stroke-linecap="round" stroke-linejoin="round"/>
<path d="M146.524 227.35L126.115 227.35" stroke="black" stroke-width="3" stroke-linecap="round" stroke-linejoin="round"/>
<path d="M202.283 201.068L202.283 227.35L170.611 227.35" stroke="black" stroke-width="3" stroke-linecap="round" stroke-linejoin="round"/>
<path d="M24.3721 118.389L1.99983 118.389" stroke="black" stroke-width="3" stroke-linecap="round" stroke-linejoin="round"/>
<path d="M158.644 265.684L158.644 266.16" stroke="#E10A0A" stroke-width="3" stroke-linecap="round" stroke-linejoin="round"/>
<path d="M158.644 256.893L158.644 257.369" stroke="#E10A0A" stroke-width="3" stroke-linecap="round" stroke-linejoin="round"/>
<path d="M158.644 248.1L158.644 248.557" stroke="#E10A0A" stroke-width="3" stroke-linecap="round" stroke-linejoin="round"/>
<path d="M167.238 244.152L158.644 235.551L150.03 244.152" stroke="#E10A0A" stroke-width="3" stroke-linecap="round" stroke-linejoin="round"/>
<path fill-rule="evenodd" clip-rule="evenodd" d="M41 0.000976562C46.5216 0.000976562 51 4.47688 51 10.001C51 15.5226 46.5241 20.001 41 20.001C35.4784 20.001 31 15.5251 31 10.001C31 9.93391 31.0025 9.86685 31.0025 9.79978C38.6925 5.72378 48.6379 7.69596 39.7929 17.5817C43.8043 15.6021 46.8818 12.7978 47.6468 10.2121C48.8937 5.98707 45.4734 4.41727 40.9255 4.83207C37.2891 5.16491 33.8589 6.57326 31.0944 8.61747C31.77 3.74911 35.9454 0.000976562 41 0.000976562Z" fill="#E10A0A"/>
</svg>
