<svg width="42" height="50" viewBox="0 0 42 50" fill="none" xmlns="http://www.w3.org/2000/svg">
<g clip-path="url(#clip0_27837_10047)">
<g clip-path="url(#clip1_27837_10047)">
<path d="M38 4.59184L26.6 0.918367C23 -0.306122 19.1 -0.306122 15.4 0.918367L4 4.59184C1.6 5.30612 0 7.55102 0 10.2041V30.4082C0 34.0816 1.7 37.6531 4.7 39.7959L15.9 48.2653C19 50.6122 23.2 50.6122 26.2 48.2653L37.4 39.7959C40.3 37.551 42.1 34.0816 42.1 30.4082V10.2041C42.1 7.65306 40.5 5.40816 38.1 4.59184H38Z" fill="#B8B8B8"/>
<mask id="path-2-outside-1_27837_10047" maskUnits="userSpaceOnUse" x="8" y="16" width="27" height="18" fill="black">
<rect fill="white" x="8" y="16" width="27" height="18"/>
<path d="M11.3 24.16C10.0467 23.4933 9.42 22.4467 9.42 21.02C9.42 20.3 9.60667 19.6467 9.98 19.06C10.3533 18.46 10.92 17.9867 11.68 17.64C12.44 17.28 13.3733 17.1 14.48 17.1C15.5867 17.1 16.5133 17.28 17.26 17.64C18.02 17.9867 18.5867 18.46 18.96 19.06C19.3333 19.6467 19.52 20.3 19.52 21.02C19.52 21.74 19.3467 22.3667 19 22.9C18.6667 23.4333 18.2133 23.8533 17.64 24.16C18.36 24.5067 18.9133 24.9867 19.3 25.6C19.6867 26.2 19.88 26.9067 19.88 27.72C19.88 28.6667 19.64 29.4867 19.16 30.18C18.68 30.86 18.0267 31.38 17.2 31.74C16.3867 32.1 15.48 32.28 14.48 32.28C13.48 32.28 12.5667 32.1 11.74 31.74C10.9267 31.38 10.28 30.86 9.8 30.18C9.32 29.4867 9.08 28.6667 9.08 27.72C9.08 26.8933 9.27333 26.18 9.66 25.58C10.0467 24.9667 10.5933 24.4933 11.3 24.16ZM16.2 21.54C16.2 20.9933 16.04 20.5733 15.72 20.28C15.4133 19.9733 15 19.82 14.48 19.82C13.96 19.82 13.54 19.9733 13.22 20.28C12.9133 20.5867 12.76 21.0133 12.76 21.56C12.76 22.08 12.92 22.4933 13.24 22.8C13.56 23.0933 13.9733 23.24 14.48 23.24C14.9867 23.24 15.4 23.0867 15.72 22.78C16.04 22.4733 16.2 22.06 16.2 21.54ZM14.48 25.64C13.8533 25.64 13.3467 25.8133 12.96 26.16C12.5733 26.4933 12.38 26.96 12.38 27.56C12.38 28.12 12.5667 28.58 12.94 28.94C13.3267 29.3 13.84 29.48 14.48 29.48C15.12 29.48 15.62 29.3 15.98 28.94C16.3533 28.58 16.54 28.12 16.54 27.56C16.54 26.9733 16.3467 26.5067 15.96 26.16C15.5867 25.8133 15.0933 25.64 14.48 25.64ZM21.8688 24.5C21.8688 22.2067 22.3088 20.4 23.1888 19.08C24.0821 17.76 25.5154 17.1 27.4888 17.1C29.4621 17.1 30.8888 17.76 31.7688 19.08C32.6621 20.4 33.1088 22.2067 33.1088 24.5C33.1088 26.82 32.6621 28.64 31.7688 29.96C30.8888 31.28 29.4621 31.94 27.4888 31.94C25.5154 31.94 24.0821 31.28 23.1888 29.96C22.3088 28.64 21.8688 26.82 21.8688 24.5ZM29.7488 24.5C29.7488 23.1533 29.6021 22.12 29.3088 21.4C29.0154 20.6667 28.4088 20.3 27.4888 20.3C26.5688 20.3 25.9621 20.6667 25.6688 21.4C25.3754 22.12 25.2288 23.1533 25.2288 24.5C25.2288 25.4067 25.2821 26.16 25.3888 26.76C25.4954 27.3467 25.7088 27.8267 26.0288 28.2C26.3621 28.56 26.8488 28.74 27.4888 28.74C28.1288 28.74 28.6088 28.56 28.9288 28.2C29.2621 27.8267 29.4821 27.3467 29.5888 26.76C29.6954 26.16 29.7488 25.4067 29.7488 24.5Z"/>
</mask>
<path d="M11.3 24.16C10.0467 23.4933 9.42 22.4467 9.42 21.02C9.42 20.3 9.60667 19.6467 9.98 19.06C10.3533 18.46 10.92 17.9867 11.68 17.64C12.44 17.28 13.3733 17.1 14.48 17.1C15.5867 17.1 16.5133 17.28 17.26 17.64C18.02 17.9867 18.5867 18.46 18.96 19.06C19.3333 19.6467 19.52 20.3 19.52 21.02C19.52 21.74 19.3467 22.3667 19 22.9C18.6667 23.4333 18.2133 23.8533 17.64 24.16C18.36 24.5067 18.9133 24.9867 19.3 25.6C19.6867 26.2 19.88 26.9067 19.88 27.72C19.88 28.6667 19.64 29.4867 19.16 30.18C18.68 30.86 18.0267 31.38 17.2 31.74C16.3867 32.1 15.48 32.28 14.48 32.28C13.48 32.28 12.5667 32.1 11.74 31.74C10.9267 31.38 10.28 30.86 9.8 30.18C9.32 29.4867 9.08 28.6667 9.08 27.72C9.08 26.8933 9.27333 26.18 9.66 25.58C10.0467 24.9667 10.5933 24.4933 11.3 24.16ZM16.2 21.54C16.2 20.9933 16.04 20.5733 15.72 20.28C15.4133 19.9733 15 19.82 14.48 19.82C13.96 19.82 13.54 19.9733 13.22 20.28C12.9133 20.5867 12.76 21.0133 12.76 21.56C12.76 22.08 12.92 22.4933 13.24 22.8C13.56 23.0933 13.9733 23.24 14.48 23.24C14.9867 23.24 15.4 23.0867 15.72 22.78C16.04 22.4733 16.2 22.06 16.2 21.54ZM14.48 25.64C13.8533 25.64 13.3467 25.8133 12.96 26.16C12.5733 26.4933 12.38 26.96 12.38 27.56C12.38 28.12 12.5667 28.58 12.94 28.94C13.3267 29.3 13.84 29.48 14.48 29.48C15.12 29.48 15.62 29.3 15.98 28.94C16.3533 28.58 16.54 28.12 16.54 27.56C16.54 26.9733 16.3467 26.5067 15.96 26.16C15.5867 25.8133 15.0933 25.64 14.48 25.64ZM21.8688 24.5C21.8688 22.2067 22.3088 20.4 23.1888 19.08C24.0821 17.76 25.5154 17.1 27.4888 17.1C29.4621 17.1 30.8888 17.76 31.7688 19.08C32.6621 20.4 33.1088 22.2067 33.1088 24.5C33.1088 26.82 32.6621 28.64 31.7688 29.96C30.8888 31.28 29.4621 31.94 27.4888 31.94C25.5154 31.94 24.0821 31.28 23.1888 29.96C22.3088 28.64 21.8688 26.82 21.8688 24.5ZM29.7488 24.5C29.7488 23.1533 29.6021 22.12 29.3088 21.4C29.0154 20.6667 28.4088 20.3 27.4888 20.3C26.5688 20.3 25.9621 20.6667 25.6688 21.4C25.3754 22.12 25.2288 23.1533 25.2288 24.5C25.2288 25.4067 25.2821 26.16 25.3888 26.76C25.4954 27.3467 25.7088 27.8267 26.0288 28.2C26.3621 28.56 26.8488 28.74 27.4888 28.74C28.1288 28.74 28.6088 28.56 28.9288 28.2C29.2621 27.8267 29.4821 27.3467 29.5888 26.76C29.6954 26.16 29.7488 25.4067 29.7488 24.5Z" fill="#E10A0A"/>
<path d="M11.3 24.16L11.7266 25.0644L13.5303 24.2136L11.7696 23.2771L11.3 24.16ZM9.98 19.06L10.8237 19.5969L10.8291 19.5883L9.98 19.06ZM11.68 17.64L12.095 18.5498L12.1016 18.5468L12.1081 18.5437L11.68 17.64ZM17.26 17.64L16.8257 18.5408L16.8353 18.5454L16.845 18.5498L17.26 17.64ZM18.96 19.06L18.1109 19.5883L18.1163 19.5969L18.96 19.06ZM19 22.9L18.1616 22.355L18.1567 22.3625L18.152 22.37L19 22.9ZM17.64 24.16L17.1683 23.2782L15.4322 24.2069L17.2062 25.061L17.64 24.16ZM19.3 25.6L18.454 26.1333L18.4594 26.1417L19.3 25.6ZM19.16 30.18L19.977 30.7567L19.9822 30.7492L19.16 30.18ZM17.2 31.74L16.8007 30.8231L16.7953 30.8256L17.2 31.74ZM11.74 31.74L11.3352 32.6544L11.3407 32.6568L11.74 31.74ZM9.8 30.18L8.97777 30.7492L8.98303 30.7567L9.8 30.18ZM9.66 25.58L10.5006 26.1217L10.5059 26.1133L9.66 25.58ZM15.72 20.28L15.0129 20.9871L15.0283 21.0025L15.0443 21.0172L15.72 20.28ZM13.22 20.28L12.5281 19.558L12.5204 19.5654L12.5129 19.5729L13.22 20.28ZM13.24 22.8L12.5481 23.522L12.5561 23.5297L12.5643 23.5372L13.24 22.8ZM15.72 22.78L15.0281 22.058H15.0281L15.72 22.78ZM12.96 26.16L13.6129 26.9174L13.6203 26.9111L13.6275 26.9046L12.96 26.16ZM12.94 28.94L12.2459 29.6598L12.2522 29.6659L12.2586 29.6719L12.94 28.94ZM15.98 28.94L15.2859 28.2202L15.2793 28.2265L15.2729 28.2329L15.98 28.94ZM15.96 26.16L15.2796 26.8928L15.286 26.8987L15.2925 26.9046L15.96 26.16ZM11.7696 23.2771C11.2769 23.015 10.9535 22.7045 10.748 22.3613C10.5423 22.0178 10.42 21.5834 10.42 21.02H8.42C8.42 21.8832 8.61101 22.6855 9.03203 23.3887C9.45321 24.0922 10.0698 24.6383 10.8304 25.0429L11.7696 23.2771ZM10.42 21.02C10.42 20.4831 10.5562 20.0172 10.8237 19.5969L9.13634 18.5231C8.65716 19.2761 8.42 20.1169 8.42 21.02H10.42ZM10.8291 19.5883C11.0807 19.1839 11.4809 18.83 12.095 18.5498L11.265 16.7302C10.3591 17.1434 9.62601 17.7361 9.13094 18.5317L10.8291 19.5883ZM12.1081 18.5437C12.699 18.2638 13.4766 18.1 14.48 18.1V16.1C13.27 16.1 12.181 16.2962 11.2519 16.7363L12.1081 18.5437ZM14.48 18.1C15.4843 18.1 16.252 18.2641 16.8257 18.5408L17.6943 16.7392C16.7747 16.2958 15.689 16.1 14.48 16.1V18.1ZM16.845 18.5498C17.4592 18.83 17.8593 19.1839 18.1109 19.5883L19.8091 18.5317C19.314 17.7361 18.5809 17.1434 17.675 16.7302L16.845 18.5498ZM18.1163 19.5969C18.3838 20.0172 18.52 20.4831 18.52 21.02H20.52C20.52 20.1169 20.2828 19.2761 19.8037 18.5231L18.1163 19.5969ZM18.52 21.02C18.52 21.5728 18.3893 22.0046 18.1616 22.355L19.8384 23.445C20.304 22.7287 20.52 21.9072 20.52 21.02H18.52ZM18.152 22.37C17.9145 22.7501 17.5931 23.051 17.1683 23.2782L18.1117 25.0418C18.8336 24.6556 19.4189 24.1166 19.848 23.43L18.152 22.37ZM17.2062 25.061C17.7749 25.3348 18.1776 25.6948 18.4541 26.1333L20.1459 25.0667C19.6491 24.2786 18.9451 23.6785 18.0738 23.259L17.2062 25.061ZM18.4594 26.1417C18.728 26.5585 18.88 27.0713 18.88 27.72H20.88C20.88 26.7421 20.6453 25.8415 20.1406 25.0583L18.4594 26.1417ZM18.88 27.72C18.88 28.4892 18.6881 29.1048 18.3378 29.6108L19.9822 30.7492C20.5919 29.8685 20.88 28.8441 20.88 27.72H18.88ZM18.343 29.6033C17.9773 30.1215 17.4741 30.5299 16.8007 30.8232L17.5993 32.6568C18.5792 32.2301 19.3827 31.5985 19.977 30.7567L18.343 29.6033ZM16.7953 30.8256C16.1244 31.1225 15.3579 31.28 14.48 31.28V33.28C15.6021 33.28 16.649 33.0775 17.6047 32.6544L16.7953 30.8256ZM14.48 31.28C13.6023 31.28 12.8269 31.1226 12.1393 30.8232L11.3407 32.6568C12.3065 33.0774 13.3577 33.28 14.48 33.28V31.28ZM12.1447 30.8256C11.4851 30.5336 10.9854 30.1253 10.617 29.6033L8.98303 30.7567C9.57455 31.5947 10.3683 32.2264 11.3353 32.6544L12.1447 30.8256ZM10.6222 29.6108C10.2719 29.1048 10.08 28.4892 10.08 27.72H8.08C8.08 28.8441 8.3681 29.8685 8.97781 30.7492L10.6222 29.6108ZM10.08 27.72C10.08 27.0544 10.2336 26.5359 10.5006 26.1217L8.81943 25.0383C8.31305 25.8241 8.08 26.7323 8.08 27.72H10.08ZM10.5059 26.1133C10.7831 25.6736 11.1783 25.3231 11.7266 25.0644L10.8734 23.2556C10.0084 23.6636 9.31024 24.2597 8.81407 25.0467L10.5059 26.1133ZM17.2 21.54C17.2 20.7907 16.9734 20.0724 16.3957 19.5428L15.0443 21.0172C15.1066 21.0743 15.2 21.196 15.2 21.54H17.2ZM16.4271 19.5729C15.8964 19.0422 15.2087 18.82 14.48 18.82V20.82C14.7913 20.82 14.9303 20.9045 15.0129 20.9871L16.4271 19.5729ZM14.48 18.82C13.75 18.82 13.0661 19.0424 12.5281 19.558L13.9119 21.002C14.0139 20.9043 14.17 20.82 14.48 20.82V18.82ZM12.5129 19.5729C11.9728 20.1129 11.76 20.8209 11.76 21.56H13.76C13.76 21.2058 13.8538 21.0604 13.9271 20.9871L12.5129 19.5729ZM11.76 21.56C11.76 22.3014 11.9971 22.994 12.5481 23.522L13.9319 22.078C13.8429 21.9927 13.76 21.8586 13.76 21.56H11.76ZM12.5643 23.5372C13.0991 24.0274 13.7677 24.24 14.48 24.24V22.24C14.179 22.24 14.0209 22.1592 13.9157 22.0628L12.5643 23.5372ZM14.48 24.24C15.2047 24.24 15.8788 24.0128 16.4119 23.502L15.0281 22.058C14.9212 22.1605 14.7687 22.24 14.48 22.24V24.24ZM16.4119 23.502C16.9629 22.974 17.2 22.2814 17.2 21.54H15.2C15.2 21.8386 15.1171 21.9727 15.0281 22.058L16.4119 23.502ZM14.48 24.64C13.6605 24.64 12.8989 24.8718 12.2925 25.4154L13.6275 26.9046C13.7945 26.7549 14.0462 26.64 14.48 26.64V24.64ZM12.3071 25.4026C11.6607 25.9598 11.38 26.7254 11.38 27.56H13.38C13.38 27.1946 13.486 27.0269 13.6129 26.9174L12.3071 25.4026ZM11.38 27.56C11.38 28.3675 11.6604 29.0953 12.2459 29.6598L13.6341 28.2202C13.4729 28.0647 13.38 27.8725 13.38 27.56H11.38ZM12.2586 29.6719C12.8679 30.2391 13.6436 30.48 14.48 30.48V28.48C14.0364 28.48 13.7855 28.3609 13.6214 28.2081L12.2586 29.6719ZM14.48 30.48C15.3133 30.48 16.0942 30.24 16.6871 29.6471L15.2729 28.2329C15.1458 28.36 14.9267 28.48 14.48 28.48V30.48ZM16.6741 29.6598C17.2596 29.0953 17.54 28.3675 17.54 27.56H15.54C15.54 27.8725 15.4471 28.0647 15.2859 28.2202L16.6741 29.6598ZM17.54 27.56C17.54 26.7301 17.2544 25.9775 16.6275 25.4154L15.2925 26.9046C15.4389 27.0359 15.54 27.2166 15.54 27.56H17.54ZM16.6405 25.4272C16.0458 24.875 15.2913 24.64 14.48 24.64V26.64C14.8953 26.64 15.1275 26.7516 15.2796 26.8928L16.6405 25.4272ZM23.1888 19.08L22.3606 18.5195L22.3567 18.5253L23.1888 19.08ZM31.7688 19.08L30.9367 19.6347L30.9406 19.6405L31.7688 19.08ZM31.7688 29.96L30.9406 29.3995L30.9367 29.4053L31.7688 29.96ZM23.1888 29.96L22.3567 30.5147L22.3606 30.5205L23.1888 29.96ZM29.3088 21.4L28.3803 21.7714L28.3827 21.7773L29.3088 21.4ZM25.6688 21.4L26.5949 21.7773L26.5972 21.7714L25.6688 21.4ZM25.3888 26.76L24.4042 26.935L24.4049 26.9389L25.3888 26.76ZM26.0288 28.2L25.2695 28.8508L25.282 28.8653L25.295 28.8794L26.0288 28.2ZM28.9288 28.2L28.1828 27.534L28.1813 27.5356L28.9288 28.2ZM29.5888 26.76L30.5726 26.9389L30.5733 26.935L29.5888 26.76ZM22.8687 24.5C22.8687 22.3204 23.289 20.7324 24.0208 19.6347L22.3567 18.5253C21.3285 20.0676 20.8687 22.093 20.8687 24.5H22.8687ZM24.0169 19.6405C24.6791 18.6621 25.7577 18.1 27.4888 18.1V16.1C25.2731 16.1 23.4851 16.8579 22.3606 18.5195L24.0169 19.6405ZM27.4888 18.1C29.2203 18.1 30.2882 18.662 30.9367 19.6347L32.6008 18.5253C31.4893 16.858 29.7039 16.1 27.4888 16.1V18.1ZM30.9406 19.6405C31.6828 20.7371 32.1088 22.3227 32.1088 24.5H34.1088C34.1088 22.0906 33.6414 20.0629 32.5969 18.5195L30.9406 19.6405ZM32.1088 24.5C32.1088 26.7067 31.6817 28.3045 30.9406 29.3995L32.5969 30.5205C33.6425 28.9755 34.1088 26.9333 34.1088 24.5H32.1088ZM30.9367 29.4053C30.2882 30.378 29.2203 30.94 27.4888 30.94V32.94C29.7039 32.94 31.4893 32.182 32.6008 30.5147L30.9367 29.4053ZM27.4888 30.94C25.7577 30.94 24.6791 30.3779 24.0169 29.3995L22.3606 30.5205C23.4851 32.1821 25.2731 32.94 27.4888 32.94V30.94ZM24.0208 29.4053C23.2901 28.3092 22.8687 26.7091 22.8687 24.5H20.8687C20.8687 26.9309 21.3274 28.9708 22.3567 30.5147L24.0208 29.4053ZM30.7488 24.5C30.7488 23.1047 30.6003 21.9196 30.2348 21.0227L28.3827 21.7773C28.6039 22.3204 28.7488 23.2019 28.7488 24.5H30.7488ZM30.2372 21.0286C30.0195 20.4843 29.6616 20.0278 29.151 19.7192C28.6516 19.4173 28.0779 19.3 27.4888 19.3V21.3C27.8196 21.3 28.0092 21.366 28.1165 21.4308C28.2125 21.4889 28.3047 21.5823 28.3803 21.7714L30.2372 21.0286ZM27.4888 19.3C26.8996 19.3 26.3259 19.4173 25.8265 19.7192C25.3159 20.0278 24.958 20.4843 24.7403 21.0286L26.5972 21.7714C26.6728 21.5823 26.765 21.4889 26.861 21.4308C26.9683 21.366 27.1579 21.3 27.4888 21.3V19.3ZM24.7427 21.0227C24.3772 21.9196 24.2288 23.1047 24.2288 24.5H26.2288C26.2288 23.2019 26.3736 22.3204 26.5948 21.7773L24.7427 21.0227ZM24.2288 24.5C24.2288 25.4399 24.2836 26.2567 24.4042 26.935L26.3733 26.585C26.2806 26.0633 26.2288 25.3734 26.2288 24.5H24.2288ZM24.4049 26.9389C24.5365 27.6629 24.8119 28.3169 25.2695 28.8508L26.788 27.5492C26.6056 27.3365 26.4543 27.0304 26.3726 26.5811L24.4049 26.9389ZM25.295 28.8794C25.8708 29.5013 26.6596 29.74 27.4888 29.74V27.74C27.0379 27.74 26.8534 27.6187 26.7625 27.5206L25.295 28.8794ZM27.4888 29.74C28.3154 29.74 29.1093 29.5021 29.6762 28.8644L28.1813 27.5356C28.1082 27.6179 27.9421 27.74 27.4888 27.74V29.74ZM29.6747 28.866C30.1524 28.331 30.4394 27.6718 30.5726 26.9389L28.6049 26.5811C28.5248 27.0216 28.3718 27.3223 28.1828 27.534L29.6747 28.866ZM30.5733 26.935C30.6939 26.2567 30.7488 25.4399 30.7488 24.5H28.7488C28.7488 25.3734 28.6969 26.0633 28.6042 26.585L30.5733 26.935Z" fill="white" mask="url(#path-2-outside-1_27837_10047)"/>
</g>
</g>
<defs>
<clipPath id="clip0_27837_10047">
<rect width="42" height="50" fill="white"/>
</clipPath>
<clipPath id="clip1_27837_10047">
<rect width="42" height="50" fill="white"/>
</clipPath>
</defs>
</svg>
