<svg width="52" height="52" viewBox="0 0 52 52" fill="none" xmlns="http://www.w3.org/2000/svg">
<g id="pay 1">
<path id="Vector" d="M42.0161 3.95117H9.98408C5.61882 3.95117 2.08008 7.48991 2.08008 11.8552V30.3672C2.08008 34.7324 5.61882 38.2712 9.98408 38.2712H42.0161C46.3813 38.2712 49.9201 34.7324 49.9201 30.3672V11.8552C49.9201 7.48991 46.3813 3.95117 42.0161 3.95117Z" fill="#B8B8B8"/>
<path id="Vector_2" d="M2.28809 15.5996H49.7121" stroke="white" stroke-width="1.5" stroke-miterlimit="10"/>
<path id="Vector_3" d="M20.7999 21.6328H12.6879C11.8838 21.6328 11.2319 22.2847 11.2319 23.0888V23.2968C11.2319 24.1009 11.8838 24.7528 12.6879 24.7528H20.7999C21.6041 24.7528 22.2559 24.1009 22.2559 23.2968V23.0888C22.2559 22.2847 21.6041 21.6328 20.7999 21.6328Z" fill="white"/>
<path id="Vector_4" d="M12.8959 26.832H12.6879C11.8838 26.832 11.2319 27.4839 11.2319 28.288V28.496C11.2319 29.3002 11.8838 29.952 12.6879 29.952H12.8959C13.7001 29.952 14.3519 29.3002 14.3519 28.496V28.288C14.3519 27.4839 13.7001 26.832 12.8959 26.832Z" fill="white"/>
<path id="Vector_5" d="M36.8159 48.0479C43.8233 48.0479 49.5039 42.3673 49.5039 35.3599C49.5039 28.3525 43.8233 22.6719 36.8159 22.6719C29.8085 22.6719 24.1279 28.3525 24.1279 35.3599C24.1279 42.3673 29.8085 48.0479 36.8159 48.0479Z" fill="white"/>
<path id="Vector_6" d="M29.2359 33.0879L29.2075 33.1092L29.1824 33.1343C28.6918 33.6249 28.4119 34.2144 28.4119 34.8399C28.4119 35.4654 28.6918 36.0549 29.1824 36.5454L33.3424 40.7054C33.8329 41.196 34.4224 41.4759 35.0479 41.4759C35.6734 41.4759 36.2629 41.196 36.7535 40.7054L44.2415 33.2174L44.4495 33.0094C44.94 32.5189 45.2199 31.9294 45.2199 31.3039C45.2199 30.6784 44.94 30.0889 44.4495 29.5983C43.9589 29.1078 43.3694 28.8279 42.7439 28.8279C42.1184 28.8279 41.5289 29.1078 41.0384 29.5983L39.8007 30.836C38.056 32.3875 36.4917 33.9381 34.9493 35.4795C34.8028 35.3249 34.6554 35.1655 34.5036 35.0014C34.3524 34.8378 34.1968 34.6696 34.0334 34.4966C33.586 34.0228 33.0994 33.5351 32.5523 33.0974L32.5462 33.0926L32.5399 33.0879C31.5302 32.3305 30.2457 32.3305 29.2359 33.0879ZM24.6279 35.3599C24.6279 28.564 30.0201 23.1719 36.8159 23.1719C43.6065 23.1719 49.0039 28.7667 49.0039 35.3599C49.0039 42.1557 43.6118 47.5479 36.8159 47.5479C30.0254 47.5479 24.6279 41.9531 24.6279 35.3599Z" fill="#E10A0A" stroke="white"/>
</g>
</svg>
