<svg width="30" height="56" viewBox="0 0 30 56" fill="none" xmlns="http://www.w3.org/2000/svg">
<path d="M15 12.5V8.75" stroke="#F6F5F5" stroke-width="2" stroke-linecap="round" stroke-linejoin="round"/>
<path d="M22.5 18.75V11.25C22.5 7.10786 19.1421 3.75 15 3.75C10.8579 3.75 7.5 7.10786 7.5 11.25V18.75C7.5 22.8921 10.8579 26.25 15 26.25C19.1421 26.25 22.5 22.8921 22.5 18.75Z" stroke="#F6F5F5" stroke-width="2" stroke-linecap="round" stroke-linejoin="round"/>
<path d="M20.7071 42.9571C21.0976 42.5666 21.0976 41.9334 20.7071 41.5429C20.3166 41.1524 19.6834 41.1524 19.2929 41.5429L20.7071 42.9571ZM15 47.25L14.2929 47.9571C14.6834 48.3476 15.3166 48.3476 15.7071 47.9571L15 47.25ZM10.7071 41.5429C10.3166 41.1524 9.68342 41.1524 9.29289 41.5429C8.90237 41.9334 8.90237 42.5666 9.29289 42.9571L10.7071 41.5429ZM19.2929 41.5429L14.2929 46.5429L15.7071 47.9571L20.7071 42.9571L19.2929 41.5429ZM15.7071 46.5429L10.7071 41.5429L9.29289 42.9571L14.2929 47.9571L15.7071 46.5429Z" fill="#A4A4A4"/>
<path d="M20.7071 35.4571C21.0976 35.0666 21.0976 34.4334 20.7071 34.0429C20.3166 33.6524 19.6834 33.6524 19.2929 34.0429L20.7071 35.4571ZM15 39.75L14.2929 40.4571C14.6834 40.8476 15.3166 40.8476 15.7071 40.4571L15 39.75ZM10.7071 34.0429C10.3166 33.6524 9.68342 33.6524 9.29289 34.0429C8.90237 34.4334 8.90237 35.0666 9.29289 35.4571L10.7071 34.0429ZM19.2929 34.0429L14.2929 39.0429L15.7071 40.4571L20.7071 35.4571L19.2929 34.0429ZM15.7071 39.0429L10.7071 34.0429L9.29289 35.4571L14.2929 40.4571L15.7071 39.0429Z" fill="#E1E1E1"/>
</svg>
