<svg width="92" height="108" viewBox="0 0 92 108" fill="none" xmlns="http://www.w3.org/2000/svg">
<g id="04 2" clip-path="url(#clip0_27837_9970)">
<path id="Vector" d="M34.8002 101.699H8.1002C3.3002 101.699 0.700195 99.0992 0.700195 94.3992V8.79922C0.700195 5.99922 1.2002 3.59922 3.1002 2.19922C5.0002 0.799219 6.2002 0.699219 8.0002 0.699219H52.4002C53.6002 0.699219 53.7002 0.799219 53.9002 0.899219C54.1002 0.999219 54.2002 0.999219 54.4002 1.09922C57.0002 1.99922 58.7002 4.29922 58.7002 6.99922V41.6992C57.7002 41.6992 56.6002 41.1992 55.6002 41.4992V15.3992C55.6002 14.2992 55.3002 14.0992 54.2002 14.0992H5.3002C4.1002 13.9992 3.8002 14.2992 3.8002 15.4992V81.1992C3.8002 103.099 3.8002 81.5992 3.8002 81.7992C3.8002 82.4992 4.0002 82.5992 4.6002 82.5992H39.8002V85.6992H4.4002C3.9002 85.6992 3.7002 85.8992 3.7002 86.3992V95.2992C3.7002 97.1992 5.2002 98.3992 7.1002 98.4992H53.4002V101.599H34.6002H34.8002V101.699ZM11.0002 3.89922H7.3002C5.3002 3.89922 4.0002 5.29922 3.9002 7.29922V10.2992C3.9002 10.9992 4.2002 11.0992 4.8002 11.0992H52.7002C54.7002 11.0992 55.7002 10.0992 55.7002 8.09922C55.7002 4.99922 54.6002 3.89922 51.5002 3.89922H11.0002Z" fill="#DF1F26"/>
<path id="Vector_2" d="M9.7 13.7995V82.5995H4.7C4 82.5995 3.7 82.3995 3.8 81.7995V15.0995C3.8 13.8995 4.2 13.5995 5.4 13.6995C6.8 13.7995 8.3 13.6995 9.7 13.6995V13.7995Z" fill="#FDE8E7"/>
<path id="Vector_3" d="M29.8002 95.2C31.5002 95.2 32.9002 93.8 32.9002 92.1C32.9002 90.4 31.5002 89 29.8002 89C28.1002 89 26.7002 90.4 26.7002 92.1C26.7002 93.8 28.1002 95.2 29.8002 95.2Z" stroke="#ED1C24" stroke-width="1.5" stroke-miterlimit="10"/>
<path id="Vector_4" d="M8.99982 85.7998V93.3997C8.99982 95.1997 9.29982 96.5997 10.6998 97.6997H7.09982C5.19982 97.6997 3.79982 96.4997 3.79982 94.6997C3.69982 91.8997 3.79982 89.0998 3.79982 86.2998C3.79982 83.4998 3.99982 85.5997 4.49982 85.5997H9.09982V85.7998H8.99982Z" fill="#FDE8E7"/>
<path id="Vector_5" d="M10.7002 3.79961C10.7002 4.09961 10.5002 4.19961 10.3002 4.29961C9.3002 4.99961 8.9002 5.89961 9.0002 7.09961V10.5996H4.6002C4.0002 10.5996 3.7002 10.5996 3.7002 9.79961V6.89961C3.7002 4.99961 5.1002 3.69961 7.1002 3.59961H10.7002V3.79961Z" fill="#FDE8E7"/>
<path id="Vector_6" d="M65.4999 38.0999C69.2999 40.0999 72.9999 42.1999 76.7999 44.1999C80.9999 46.4999 85.2999 48.6999 89.5999 50.8999C90.6999 51.4999 91.1999 52.2999 91.1999 53.5999C91.1999 59.2999 91.3999 64.9999 91.1999 70.6999C90.5999 86.8999 82.7999 98.4999 67.9999 105.4C66.6999 106 65.2999 106.6 63.9999 107.3H62.5999C61.6999 106.5 60.4999 106.3 59.4999 105.8C55.4999 104.1 51.8999 101.6 48.4999 98.7999C47.6999 97.9999 46.7999 97.0999 45.9999 96.2999C45.7999 95.9999 45.4999 95.5999 45.2999 95.2999C39.3999 88.1999 36.3999 80.0999 36.3999 70.8999V53.5999C36.3999 52.3999 36.7999 51.6999 37.8999 51.0999C41.0999 49.3999 44.1999 47.6999 47.3999 45.9999C52.3999 43.1999 57.4999 40.3999 62.4999 37.6999C63.6999 37.0999 64.6999 37.9999 65.6999 38.2999L65.4999 38.0999ZM87.7999 64.4999V55.0999C87.7999 54.1999 87.4999 53.7999 86.6999 53.3999C79.2999 49.4999 71.7999 45.4999 64.3999 41.5999C63.6999 41.1999 63.0999 41.1999 62.2999 41.5999C55.0999 45.4999 47.9999 49.4999 40.7999 53.3999C39.9999 53.7999 39.6999 54.2999 39.6999 55.1999C39.6999 60.4999 39.5999 65.7999 39.6999 71.0999C40.0999 85.0999 46.5999 95.3999 59.0999 101.9C62.9999 104 63.0999 103.9 67.1999 101.9C77.1999 97.2999 83.6999 89.6999 86.5999 79.0999C87.8999 74.2999 87.7999 69.2999 87.6999 64.3999L87.7999 64.4999Z" fill="#158946"/>
<path id="Vector_7" d="M74.4 65.1992L67.25 72.3492L60.1 79.4992L53 72.3992" stroke="#158946" stroke-width="4" stroke-linecap="round" stroke-linejoin="round"/>
</g>
<defs>
<clipPath id="clip0_27837_9970">
<rect width="92" height="108" fill="white"/>
</clipPath>
</defs>
</svg>
