<svg width="94" height="107" viewBox="0 0 94 107" fill="none" xmlns="http://www.w3.org/2000/svg">
<g id="01 2">
<path id="Vector" d="M35.2001 101.199H8.5001C3.7001 101.199 1.1001 98.5992 1.1001 93.8992V8.29922C1.1001 5.39922 1.6001 3.09922 3.5001 1.69922C5.4001 0.299219 6.6001 0.199219 8.4001 0.199219H52.8001C54.0001 0.199219 54.1001 0.299219 54.3001 0.399219C54.5001 0.399219 54.6001 0.399219 54.8001 0.599219C57.4001 1.49922 59.1001 3.79922 59.1001 6.49922V48.1992C58.1001 48.1992 57.0001 47.6992 56.0001 47.9992V14.8992C56.0001 13.7992 55.7001 13.5992 54.6001 13.5992H5.7001C4.5001 13.4992 4.2001 13.7992 4.2001 14.9992V80.6992C4.2001 102.599 4.2001 81.0992 4.2001 81.2992C4.2001 81.9992 4.4001 82.0992 5.0001 82.0992H36.3001V85.1992H4.9001C4.4001 85.1992 4.2001 85.3992 4.2001 85.8992V94.7992C4.2001 96.6992 5.7001 97.8992 7.6001 97.9992H46.5001V101.099H35.2001V101.199ZM11.3001 3.39922H7.6001C5.6001 3.39922 4.3001 4.79922 4.2001 6.79922V9.79922C4.2001 10.4992 4.5001 10.5992 5.1001 10.5992H53.0001C55.0001 10.5992 56.0001 9.59922 56.0001 7.59922C56.0001 4.49922 54.9001 3.39922 51.8001 3.39922H11.3001Z" fill="#DF1F26"/>
<path id="Vector_2" d="M10.0999 13.2995V82.0995H5.0999C4.3999 82.0995 4.0999 81.8995 4.1999 81.2995V14.5995C4.1999 13.3995 4.5999 13.0995 5.7999 13.1995C7.1999 13.2995 8.6999 13.1995 10.0999 13.1995V13.2995Z" fill="#FDE8E7"/>
<path id="Vector_3" d="M30.1 94.7C31.8 94.7 33.2 93.3 33.2 91.6C33.2 89.9 31.8 88.5 30.1 88.5C28.4 88.5 27 89.9 27 91.6C27 93.3 28.4 94.7 30.1 94.7Z" stroke="#ED1C24" stroke-width="1.5" stroke-miterlimit="10"/>
<path id="Vector_4" d="M9.4002 85.2998V92.8997C9.4002 94.6997 9.7002 96.0997 11.1002 97.1997H7.5002C5.6002 97.1997 4.2002 95.9997 4.2002 94.1997C4.2002 91.3997 4.2002 88.5998 4.2002 85.7998C4.2002 82.9998 4.4002 85.0997 4.9002 85.0997H9.5002V85.2998H9.4002Z" fill="#FDE8E7"/>
<path id="Vector_5" d="M11.1001 3.29961C11.1001 3.59961 10.9001 3.69961 10.7001 3.79961C9.7001 4.49961 9.3001 5.39961 9.4001 6.59961V10.0996H5.0001C4.4001 10.0996 4.1001 10.0996 4.1001 9.29961V6.39961C4.1001 4.49961 5.5001 3.19961 7.5001 3.09961H11.1001V3.29961Z" fill="#FDE8E7"/>
<path id="Vector_6" d="M63.0002 104.6C78.4002 104.6 90.8002 92.1 90.8002 76.8C90.8002 61.5 78.3002 49 63.0002 49C47.7002 49 35.2002 61.5 35.2002 76.8C35.2002 92.1 47.7002 104.6 63.0002 104.6Z" stroke="#158946" stroke-width="4" stroke-linecap="round" stroke-linejoin="round"/>
<path id="Vector_7" d="M73.6998 69.5996L59.3998 83.8996L52.2998 76.7996" stroke="#158946" stroke-width="4" stroke-linecap="round" stroke-linejoin="round"/>
</g>
</svg>
