<svg width="106" height="108" viewBox="0 0 106 108" fill="none" xmlns="http://www.w3.org/2000/svg">
<g id="02 2" clip-path="url(#clip0_27837_9991)">
<path id="Vector" d="M34.1999 101.4H7.49986C2.69986 101.4 0.0998606 98.8004 0.0998606 94.1004V8.50039C-0.000139438 5.50039 0.599861 3.30039 2.49986 1.90039C4.39986 0.500391 5.59986 0.400391 7.39986 0.400391H51.7999C52.9999 0.400391 53.0999 0.400391 53.2999 0.600391C53.4999 0.600391 53.5999 0.700391 53.7999 0.800391C56.3999 1.70039 58.0999 4.00039 58.0999 6.70039V41.4004C57.0999 41.4004 55.9999 40.9004 54.9999 41.2004V15.1004C54.9999 14.0004 54.6999 13.8004 53.5999 13.8004H4.69986C3.49986 13.8004 3.19986 14.0004 3.19986 15.2004V80.9004C3.19986 102.8 3.19986 81.3004 3.19986 81.5004C3.19986 82.2004 3.39986 82.3004 3.99986 82.3004H43.4999V85.4004H3.79986C3.29986 85.4004 3.09986 85.6004 3.09986 86.1004V95.0004C3.09986 96.9004 4.59986 98.1004 6.49986 98.2004H33.9999V101.3H34.1999V101.4ZM10.3999 3.60039H6.69986C4.69986 3.60039 3.39986 5.00039 3.29986 7.00039V10.0004C3.29986 10.7004 3.59986 10.8004 4.19986 10.8004H52.0999C54.0999 10.8004 55.0999 9.80039 55.0999 7.80039C55.0999 4.70039 53.9999 3.60039 50.8999 3.60039H10.3999Z" fill="#DF1F26"/>
<path id="Vector_2" d="M9.0999 13.5007V82.3007H4.0999C3.3999 82.3007 3.0999 82.1007 3.1999 81.5007V14.8007C3.1999 13.6007 3.5999 13.3007 4.7999 13.4007C6.1999 13.5007 7.6999 13.4007 9.0999 13.4007V13.5007Z" fill="#FDE8E7"/>
<path id="Vector_3" d="M29.1 94.8992C30.8 94.8992 32.2 93.4992 32.2 91.7992C32.2 90.0992 30.8 88.6992 29.1 88.6992C27.4 88.6992 26 90.0992 26 91.7992C26 93.4992 27.4 94.8992 29.1 94.8992Z" stroke="#ED1C24" stroke-width="1.5" stroke-miterlimit="10"/>
<path id="Vector_4" d="M8.4002 85.5009V93.1009C8.4002 94.9009 8.7002 96.3009 10.1002 97.4009H6.5002C4.6002 97.4009 3.2002 96.2009 3.2002 94.4009C3.2002 91.6009 3.2002 88.8009 3.2002 86.0009C3.2002 83.2009 3.4002 85.3009 3.9002 85.3009H8.5002V85.5009H8.4002Z" fill="#FDE8E7"/>
<path id="Vector_5" d="M10.1001 3.50078C10.1001 3.80078 9.9001 3.90078 9.7001 4.00078C8.7001 4.70078 8.3001 5.60078 8.4001 6.80078V10.3008H4.0001C3.4001 10.3008 3.1001 10.2008 3.1001 9.50078V6.60078C3.1001 4.70078 4.5001 3.40078 6.5001 3.30078H10.1001V3.50078Z" fill="#FDE8E7"/>
<path id="Vector_6" d="M55.4998 40.9008H58.3998C62.5998 40.9008 66.7998 41.0008 71.0998 41.1008H96.3998C104.8 41.1008 105.8 45.2008 105.8 50.2008V62.5008C105.8 66.6008 104.8 64.6008 103.5 64.6008C99.7998 64.6008 96.0998 64.6008 92.2998 64.4008C91.3998 64.4008 91.0998 64.6008 91.0998 65.5008V97.8008C91.0998 103.301 86.7998 107.401 81.0998 107.501H42.6998C37.5998 107.501 33.7998 103.901 33.2998 98.9008V94.2008C33.2998 92.4008 33.6998 92.0008 35.5998 92.0008H42.3998C43.3998 92.0008 43.5998 91.7008 43.5998 90.8008C43.5998 81.1008 43.5998 71.5008 43.5998 61.8008V49.3008C43.5998 44.9008 46.8998 41.5008 51.3998 41.0008C52.6998 40.9008 54.0998 40.9008 55.3998 40.8008L55.4998 40.9008ZM90.3998 44.2008L90.1998 43.9008H52.3998C48.9998 43.9008 46.6998 46.4008 46.6998 49.7008C46.6998 63.5008 46.6998 77.3008 46.4998 91.1008C46.4998 92.0008 46.6998 92.3008 47.6998 92.3008H71.6998C72.9998 92.3008 74.0998 93.3008 74.0998 94.5008C74.0998 95.7008 73.8998 97.9008 74.2998 99.6008C75.0998 102.901 78.2998 105.101 81.6998 104.801C85.2998 104.501 87.9998 101.701 88.0998 98.2008V52.1008C88.0998 49.3008 88.0998 46.5008 90.1998 44.2008H90.3998ZM73.9998 104.701C71.4998 102.201 70.7998 99.3008 71.0998 96.2008C71.3998 93.1008 70.5998 94.9008 69.8998 94.9008H43.8998C35.2998 94.9008 39.3998 94.9008 37.1998 94.9008C34.9998 94.9008 36.2998 95.1008 36.2998 95.8008V98.7008C36.2998 102.001 39.1998 104.701 42.5998 104.801H74.0998L73.9998 104.701ZM102.9 55.1008V49.5008C102.9 46.5008 100.3 44.0008 97.2998 44.0008C94.2998 44.0008 91.3998 46.3008 91.2998 49.3008V60.8008C91.2998 61.6008 91.6998 61.7008 93.0998 61.5008C95.6998 61.2008 98.2998 61.2008 100.9 61.5008C103.5 61.9008 103 61.7008 102.9 60.8008V55.0008V55.1008Z" fill="#158946"/>
<path id="Vector_7" d="M63.2001 48.3008H75.3001C76.0001 48.3008 76.7001 48.3008 77.1001 49.1008C77.7001 50.2008 76.9001 51.3008 75.5001 51.3008H50.6001C49.7001 51.3008 49.1001 50.7008 49.1001 49.8008C49.1001 48.9008 49.8001 48.4008 50.7001 48.4008H63.2001V48.3008Z" fill="#158946"/>
<path id="Vector_8" d="M63.1001 66.5992H50.8001C50.0001 66.5992 49.5001 66.3992 49.1001 65.6992C48.8001 65.1992 49.0001 64.6992 49.3001 64.1992C49.7001 63.6992 50.3001 63.6992 50.9001 63.6992H75.2001C76.1001 63.6992 76.9001 63.8992 77.1001 64.9992C77.3001 65.9992 76.6001 66.6992 75.3001 66.6992H63.1001V66.5992Z" fill="#158946"/>
<path id="Vector_9" d="M63.3001 56.0004H75.3001C76.6001 56.0004 77.2001 56.5004 77.2001 57.4004C77.2001 58.3004 76.6001 58.9004 75.3001 58.9004C67.2001 58.9004 59.0001 58.9004 50.9001 58.9004C49.8001 58.9004 49.1001 58.3004 49.1001 57.4004C49.1001 56.5004 49.8001 55.9004 50.9001 55.9004H63.3001V56.1004V56.0004Z" fill="#158946"/>
<path id="Vector_10" d="M63.2002 74.2008H50.9002C50.1002 74.2008 49.6002 74.0008 49.2002 73.3008C48.9002 72.8008 49.2002 72.3008 49.4002 71.8008C49.8002 71.3008 50.4002 71.3008 51.0002 71.3008H75.3002C76.2002 71.3008 77.0002 71.5008 77.2002 72.6008C77.4002 73.6008 76.7002 74.3008 75.4002 74.3008H63.2002V74.2008Z" fill="#158946"/>
<path id="Vector_11" d="M63.2002 81.9H50.9002C50.1002 81.9 49.6002 81.7 49.2002 81C48.9002 80.5 49.2002 80 49.4002 79.5C49.8002 79 50.4002 79 51.0002 79H75.3002C76.2002 79 77.0002 79.2 77.2002 80.3C77.4002 81.3 76.7002 82 75.4002 82H63.2002V81.9Z" fill="#158946"/>
<path id="Vector_12" d="M82.5 52.1992C83.9 52.1992 85 51.0992 85 49.6992C85 48.2992 83.9 47.1992 82.5 47.1992C81.1 47.1992 80 48.2992 80 49.6992C80 51.0992 81.1 52.1992 82.5 52.1992Z" fill="#158946"/>
<g id="Vector_13">
<path d="M83.3001 49.1992L82.2001 50.2992L81.6001 49.6992" fill="#158946"/>
<path d="M83.3001 49.1992L82.2001 50.2992L81.6001 49.6992" stroke="white" stroke-width="0.8" stroke-linecap="round" stroke-linejoin="round"/>
</g>
<path id="Vector_14" d="M82.5 59.9004C83.9 59.9004 85 58.8004 85 57.4004C85 56.0004 83.9 54.9004 82.5 54.9004C81.1 54.9004 80 56.0004 80 57.4004C80 58.8004 81.1 59.9004 82.5 59.9004Z" fill="#158946"/>
<g id="Vector_15">
<path d="M83.3001 56.8008L82.2001 57.9008L81.6001 57.3008" fill="#158946"/>
<path d="M83.3001 56.8008L82.2001 57.9008L81.6001 57.3008" stroke="white" stroke-width="0.8" stroke-linecap="round" stroke-linejoin="round"/>
</g>
<path id="Vector_16" d="M82.5 67.5996C83.9 67.5996 85 66.4996 85 65.0996C85 63.6996 83.9 62.5996 82.5 62.5996C81.1 62.5996 80 63.6996 80 65.0996C80 66.4996 81.1 67.5996 82.5 67.5996Z" fill="#158946"/>
<g id="Vector_17">
<path d="M83.3001 64.5996L82.2001 65.6996L81.6001 65.0996" fill="#158946"/>
<path d="M83.3001 64.5996L82.2001 65.6996L81.6001 65.0996" stroke="white" stroke-width="0.8" stroke-linecap="round" stroke-linejoin="round"/>
</g>
<path id="Vector_18" d="M82.5 75.3008C83.9 75.3008 85 74.2008 85 72.8008C85 71.4008 83.9 70.3008 82.5 70.3008C81.1 70.3008 80 71.4008 80 72.8008C80 74.2008 81.1 75.3008 82.5 75.3008Z" fill="#158946"/>
<g id="Vector_19">
<path d="M83.3001 72.1992L82.2001 73.2992L81.6001 72.6992" fill="#158946"/>
<path d="M83.3001 72.1992L82.2001 73.2992L81.6001 72.6992" stroke="white" stroke-width="0.8" stroke-linecap="round" stroke-linejoin="round"/>
</g>
<path id="Vector_20" d="M82.5 83C83.9 83 85 81.9 85 80.5C85 79.1 83.9 78 82.5 78C81.1 78 80 79.1 80 80.5C80 81.9 81.1 83 82.5 83Z" fill="#158946"/>
<g id="Vector_21">
<path d="M83.3001 79.9004L82.2001 81.0004L81.6001 80.4004" fill="#158946"/>
<path d="M83.3001 79.9004L82.2001 81.0004L81.6001 80.4004" stroke="white" stroke-width="0.8" stroke-linecap="round" stroke-linejoin="round"/>
</g>
</g>
<defs>
<clipPath id="clip0_27837_9991">
<rect width="106" height="108" fill="white"/>
</clipPath>
</defs>
</svg>
