<svg width="92" height="106" viewBox="0 0 92 106" fill="none" xmlns="http://www.w3.org/2000/svg">
<g id="03 2" clip-path="url(#clip0_27837_9980)">
<path id="Vector" d="M34.7001 101.199H8.0001C3.2001 101.199 0.600098 98.5992 0.600098 93.8992V8.29922C0.600098 5.99922 1.1001 3.09922 3.0001 1.69922C4.9001 0.299219 6.1001 0.199219 7.9001 0.199219H52.3001C53.5001 0.199219 53.6001 0.299219 53.8001 0.399219C54.0001 0.399219 54.1001 0.399219 54.3001 0.599219C56.9001 1.49922 58.6001 3.79922 58.6001 6.49922V38.4992C57.6001 38.4992 56.5001 37.9992 55.5001 38.2992V14.8992C55.5001 13.7992 55.2001 13.5992 54.1001 13.5992H5.2001C4.0001 13.4992 3.7001 13.7992 3.7001 14.9992V80.6992C3.7001 102.599 3.7001 81.0992 3.7001 81.2992C3.7001 81.9992 3.9001 82.0992 4.5001 82.0992H44.1001V85.1992H4.4001C3.9001 85.1992 3.7001 85.3992 3.7001 85.8992V94.7992C3.7001 96.6992 5.2001 97.8992 7.1001 97.9992H39.1001V101.099H34.6001L34.7001 101.199ZM10.8001 3.39922H7.1001C5.1001 3.39922 3.8001 4.79922 3.7001 6.79922V9.79922C3.7001 10.4992 4.0001 10.5992 4.6001 10.5992H52.5001C54.5001 10.5992 55.5001 9.59922 55.5001 7.59922C55.5001 4.49922 54.4001 3.39922 51.3001 3.39922H10.8001Z" fill="#DF1F26"/>
<path id="Vector_2" d="M9.5999 13.2995V82.0995H4.5999C3.8999 82.0995 3.5999 81.8995 3.6999 81.2995V14.5995C3.6999 13.3995 4.0999 13.0995 5.2999 13.1995C6.6999 13.2995 8.1999 13.1995 9.5999 13.1995V13.2995Z" fill="#FDE8E7"/>
<path id="Vector_3" d="M29.6 94.7C31.3 94.7 32.7 93.3 32.7 91.6C32.7 89.9 31.3 88.5 29.6 88.5C27.9 88.5 26.5 89.9 26.5 91.6C26.5 93.3 27.9 94.7 29.6 94.7Z" stroke="#ED1C24" stroke-width="1.5" stroke-miterlimit="10"/>
<path id="Vector_4" d="M8.9002 85.2998V92.8997C8.9002 94.6997 9.2002 96.0997 10.6002 97.1997H7.0002C5.1002 97.1997 3.7002 95.9997 3.7002 94.1997C3.7002 91.3997 3.7002 88.5998 3.7002 85.7998C3.7002 82.9998 3.9002 85.0997 4.4002 85.0997H9.0002V85.2998H8.9002Z" fill="#FDE8E7"/>
<path id="Vector_5" d="M10.6001 3.29961C10.6001 3.59961 10.4001 3.69961 10.2001 3.79961C9.2001 4.49961 8.8001 5.39961 8.9001 6.59961V10.0996H4.5001C3.9001 10.0996 3.6001 10.0996 3.6001 9.29961V6.39961C3.6001 4.49961 5.0001 3.19961 7.0001 3.09961H10.6001V3.29961Z" fill="#FDE8E7"/>
<path id="Vector_6" d="M42.3998 67.7992H46.2998C48.8998 75.3992 56.0998 80.7992 64.4998 80.7992C72.8998 80.7992 75.8998 77.9992 79.4998 73.5992H84.4998C85.3998 73.5992 86.1998 72.7992 86.1998 71.8992V67.6992H86.9998C88.7998 67.6992 90.2998 66.1992 90.2998 64.3992V55.9992C90.2998 54.3992 89.0998 52.9992 87.5998 52.7992C86.4998 47.7992 83.7998 43.5992 79.6998 40.4992C75.4998 37.2992 70.2998 35.6992 64.5998 35.6992C52.9998 35.6992 43.7998 42.5992 41.5998 52.8992C40.1998 53.2992 39.2998 54.5992 39.2998 56.0992V64.4992C39.2998 66.2992 40.7998 67.7992 42.5998 67.7992H42.3998ZM42.4998 64.3992V56.0992H46.0998C45.5998 57.7992 45.2998 59.6992 45.2998 61.5992C45.2998 63.4992 45.2998 63.4992 45.4998 64.3992H42.4998ZM64.4998 77.3992C55.7998 77.3992 48.6998 70.2992 48.6998 61.5992C48.6998 52.8992 55.7998 45.7992 64.4998 45.7992C73.1998 45.7992 80.2998 52.8992 80.2998 61.5992C80.2998 70.2992 79.2998 67.7992 77.6998 70.2992H63.4998C62.5998 70.2992 61.7998 71.0992 61.7998 71.9992C61.7998 72.8992 62.5998 73.6992 63.4998 73.6992H74.7998C71.9998 76.0992 68.3998 77.4992 64.4998 77.4992V77.3992ZM82.7998 70.1992H81.6998C82.0998 69.3992 82.4998 68.5992 82.6998 67.6992V70.1992H82.7998ZM86.8998 64.3992H83.5998C83.5998 63.4992 83.7998 62.4992 83.7998 61.5992C83.7998 59.6992 83.4998 57.7992 82.9998 56.0992H86.8998V64.3992ZM64.4998 38.9992C74.1998 38.9992 81.7998 44.3992 83.9998 52.6992H81.4998C78.2998 46.5992 71.8998 42.3992 64.4998 42.3992C57.0998 42.3992 50.6998 46.5992 47.4998 52.6992H44.9998C47.1998 44.3992 54.8998 38.9992 64.4998 38.9992Z" fill="#158946"/>
<path id="Vector_7" d="M81.7 81.5H47.2C41.9 81.5 37.5 85.8 37.5 91.2V104.1C37.5 105 38.3 105.8 39.2 105.8C40.1 105.8 40.9 105 40.9 104.1V91.2C40.9 87.7 43.7 84.9 47.2 84.9H81.7C85.2 84.9 88 87.7 88 91.2V104.1C88 105 88.8 105.8 89.7 105.8C90.6 105.8 91.4 105 91.4 104.1V91.2C91.4 85.9 87.1 81.5 81.7 81.5Z" fill="#158946"/>
<path id="Vector_8" d="M89.8998 102.9H39.1998C38.3998 102.9 37.7998 103.5 37.7998 104.3C37.7998 105.2 38.3998 105.8 39.1998 105.8H89.8998C90.6998 105.8 91.2998 105.2 91.2998 104.4C91.2998 103.5 90.6998 102.9 89.8998 102.9Z" fill="#158946"/>
</g>
<defs>
<clipPath id="clip0_27837_9980">
<rect width="92" height="106" fill="white"/>
</clipPath>
</defs>
</svg>
